<svg width="100" height="100" viewBox="0 0 100 100" fill="none" xmlns="http://www.w3.org/2000/svg">
    <path d="M68.1894 26.7305C60.3144 26.7305 56.9863 30.4883 51.5019 30.4883C45.8789 30.4883 41.5898 26.7578 34.7656 26.7578C28.0859 26.7578 20.9629 30.8359 16.4394 37.7832C10.0879 47.5801 11.166 66.0313 21.4531 81.75C25.1328 87.377 30.0468 93.6875 36.4922 93.7559H36.6093C42.2109 93.7559 43.875 90.0879 51.584 90.0449H51.7011C59.2949 90.0449 60.8183 93.7344 66.3965 93.7344H66.5136C72.959 93.666 78.1367 86.6738 81.8164 81.0684C84.4648 77.0371 85.4492 75.0137 87.4804 70.4531C72.5996 64.8047 70.209 43.709 84.9258 35.6211C80.4336 29.9961 74.1211 26.7383 68.1699 26.7383L68.1894 26.7305Z" fill="white"/>
    <path d="M66.4551 6.25C61.7676 6.56836 56.2988 9.55273 53.0957 13.4492C50.1894 16.9805 47.7988 22.2188 48.7363 27.2988H49.1113C54.1035 27.2988 59.2129 24.293 62.1973 20.4414C65.0723 16.7754 67.2519 11.5801 66.4551 6.25Z" fill="white"/>
</svg>
