<svg width="108" height="100" viewBox="0 0 108 100" fill="none" xmlns="http://www.w3.org/2000/svg">
    <g clip-path="url(#clip0_419_493)">
        <path d="M50.3705 96.6473C50.3883 96.2518 50.4837 95.8638 50.6512 95.5058C50.8187 95.1478 51.0549 94.8268 51.3462 94.5615C51.6376 94.2963 51.9782 94.092 52.3483 93.9605C52.7185 93.8289 53.1108 93.7729 53.5026 93.7954C53.8944 93.818 54.2779 93.9187 54.6308 94.0919C54.9837 94.265 55.2991 94.5071 55.5586 94.804C55.8181 95.101 56.0167 95.447 56.1427 95.8219C56.2687 96.1969 56.3198 96.5933 56.2928 96.9883C56.2393 97.774 55.8808 98.5067 55.2952 99.0276C54.7096 99.5484 53.9441 99.8154 53.1646 99.7705C52.3852 99.7256 51.6548 99.3726 51.1317 98.7879C50.6086 98.2032 50.3351 97.4341 50.3705 96.6473ZM26.078 93.4098C26.4174 92.8883 26.9482 92.5241 27.5537 92.3974C28.1593 92.2707 28.7899 92.3919 29.3068 92.7343C29.8238 93.0766 30.1848 93.6122 30.3104 94.223C30.4359 94.8339 30.3158 95.4701 29.9764 95.9916C29.8084 96.2499 29.5915 96.4722 29.3383 96.6459C29.0851 96.8196 28.8004 96.9413 28.5006 97.004C28.2007 97.0667 27.8916 97.0692 27.5907 97.0114C27.2899 96.9535 27.0034 96.8365 26.7474 96.667C26.4914 96.4974 26.271 96.2786 26.0989 96.0232C25.9267 95.7677 25.8061 95.4805 25.7439 95.178C25.6818 94.8755 25.6793 94.5636 25.7366 94.2602C25.7939 93.9567 25.9099 93.6676 26.078 93.4094V93.4098ZM78.1821 92.4874C78.4554 92.3479 78.7533 92.2641 79.0587 92.2409C79.3641 92.2177 79.671 92.2556 79.9619 92.3523C80.2528 92.449 80.522 92.6026 80.7539 92.8044C80.9858 93.0063 81.176 93.2523 81.3135 93.5284C81.5212 93.9438 81.6022 94.412 81.5462 94.8738C81.4901 95.3356 81.2996 95.7703 80.9986 96.1229C80.6977 96.4755 80.2998 96.7301 79.8554 96.8545C79.4111 96.979 78.9401 96.9677 78.502 96.8221C78.064 96.6765 77.6786 96.4031 77.3946 96.0365C77.1106 95.6699 76.9407 95.2266 76.9065 94.7626C76.8722 94.2986 76.9751 93.8348 77.2022 93.4298C77.4293 93.0248 77.7703 92.6969 78.1821 92.4874ZM31.7092 80.96C32.2322 80.1543 33.0508 79.5911 33.9853 79.3943C34.9197 79.1974 35.8934 79.383 36.6922 79.9102C37.4909 80.4386 38.0491 81.2652 38.244 82.2085C38.439 83.1518 38.2548 84.1346 37.732 84.941C37.2059 85.7402 36.3877 86.2969 35.4561 86.4897C34.5245 86.6824 33.5552 86.4955 32.7597 85.9697C31.9643 85.4439 31.4074 84.622 31.2106 83.6834C31.0137 82.7448 31.193 81.7657 31.7092 80.96ZM70.8674 79.6199C71.2886 79.4032 71.7481 79.2724 72.2195 79.235C72.6908 79.1976 73.1649 79.2543 73.6145 79.402C74.0641 79.5496 74.4805 79.7852 74.8397 80.0953C75.199 80.4055 75.4941 80.784 75.7082 81.2094C76.0302 81.8458 76.1591 82.5639 76.079 83.2738C75.9988 83.9837 75.713 84.6541 75.2574 85.2012C74.8018 85.7483 74.1964 86.1477 73.517 86.3498C72.8377 86.5518 72.1143 86.5474 71.4374 86.3371C70.7605 86.1268 70.16 85.7199 69.711 85.1673C69.2619 84.6148 68.9842 83.9409 68.9126 83.2301C68.8409 82.5192 68.9785 81.8028 69.3081 81.1703C69.6377 80.5378 70.1447 80.0174 70.7658 79.6739L70.8674 79.6199ZM49.4625 77.4013C49.8293 76.6401 50.4118 76.0057 51.1363 75.5787C51.8607 75.1517 52.6945 74.9512 53.532 75.0026C55.8625 75.1431 57.6404 77.1608 57.5062 79.5127C57.4707 80.1446 57.2966 80.7605 56.9965 81.3162C56.6964 81.872 56.2778 82.3536 55.7709 82.7263C55.264 83.099 54.6814 83.3536 54.0651 83.4716C53.4488 83.5897 52.8143 83.5682 52.2072 83.4089C51.6001 83.2495 51.0357 82.9562 50.5546 82.5501C50.0735 82.1441 49.6877 81.6353 49.4252 81.0606C49.1626 80.4859 49.0297 79.8595 49.0362 79.2267C49.0426 78.5939 49.1882 77.9705 49.4625 77.4013ZM11.9752 70.7824C12.6756 70.4307 13.4854 70.3724 14.2281 70.6203C14.9709 70.8681 15.5866 71.4019 15.9411 72.1056C16.2955 72.8092 16.3601 73.6256 16.1207 74.377C15.8813 75.1284 15.3573 75.754 14.6629 76.1175C13.9684 76.481 13.1598 76.553 12.4129 76.3178C11.6661 76.0826 11.0416 75.5593 10.6755 74.8618C10.3093 74.1643 10.2311 73.3492 10.458 72.5938C10.6848 71.8384 11.1982 71.204 11.8865 70.8288L11.9748 70.7824H11.9752ZM91.3765 71.6334C91.5881 71.3005 91.863 71.0132 92.1853 70.7881C92.5076 70.563 92.871 70.4046 93.2544 70.3221C93.6377 70.2395 94.0335 70.2344 94.4189 70.3071C94.8042 70.3799 95.1714 70.5289 95.4993 70.7457C95.8272 70.9624 96.1092 71.2426 96.3291 71.57C96.549 71.8974 96.7024 72.2656 96.7804 72.6531C96.8584 73.0407 96.8595 73.44 96.7836 73.828C96.7076 74.216 96.5562 74.585 96.3381 74.9136C95.9032 75.5687 95.2296 76.0242 94.4637 76.1811C93.6978 76.338 92.9014 76.1836 92.2477 75.7514C91.594 75.3192 91.1358 74.6443 90.9727 73.8732C90.8095 73.1021 90.9546 72.2972 91.3765 71.6334ZM41.6438 58.3625C43.0553 57.5937 44.6807 57.3219 46.2626 57.59C47.8446 57.8581 49.2926 58.6509 50.3776 59.8428C51.4626 61.0347 52.1226 62.5577 52.2529 64.1706C52.3833 65.7835 51.9767 67.3943 51.0974 68.7478C50.4435 69.7603 49.5486 70.5915 48.4945 71.1655C47.4403 71.7395 46.2604 72.038 45.0625 72.0338C43.4586 72.0326 41.9008 71.4916 40.6359 70.4967C39.371 69.5017 38.4711 68.1095 38.0788 66.5405C37.6864 64.9716 37.824 63.3154 38.4697 61.8341C39.1154 60.3529 40.2324 59.1312 41.6438 58.3625ZM59.855 57.8157C61.4905 57.2846 63.2602 57.3602 64.8453 58.029C66.4303 58.6978 67.7265 59.9158 68.5002 61.4634C70.2794 65.0456 68.8531 69.4056 65.3089 71.2153C64.3027 71.7302 63.1916 72.0023 62.0634 72.0102C60.3453 72.0101 58.6838 71.391 57.3783 70.2644C56.0727 69.1378 55.2089 67.5779 54.9425 65.8656C54.6761 64.1534 55.0247 62.4015 55.9254 60.9255C56.826 59.4496 58.2196 58.3468 59.855 57.8157ZM25.1436 61.8537C25.5525 61.3743 26.0617 60.9925 26.6345 60.7356C27.2073 60.4787 27.8294 60.3531 28.4561 60.368C29.0828 60.3829 29.6983 60.5379 30.2585 60.8217C30.8187 61.1055 31.3095 61.5111 31.6955 62.0093C32.0816 62.5075 32.3533 63.0859 32.4911 63.7029C32.6289 64.3198 32.6294 64.9598 32.4924 65.577C32.3555 66.1941 32.0845 66.7728 31.6992 67.2716C31.3138 67.7704 30.8236 68.1767 30.2638 68.4613C29.3883 68.9064 28.387 69.0315 27.4303 68.8155C26.4737 68.5994 25.6208 68.0555 25.0171 67.2763C24.4133 66.4971 24.0959 65.5309 24.119 64.5421C24.1421 63.5534 24.5042 62.6033 25.1436 61.8537ZM75.228 62.1828C76.5125 60.2085 79.1403 59.6587 81.0969 60.9549C83.0501 62.2537 83.5938 64.9009 82.3139 66.876C81.0295 68.8499 78.4017 69.3997 76.4451 68.1039C74.4882 66.8077 73.9432 64.157 75.228 62.1828ZM29.3185 49.5343C29.5436 45.5794 32.8644 42.5343 36.7884 42.6845C40.7115 42.8347 43.794 46.125 43.7221 50.0853C43.651 54.0009 40.5208 57.1478 36.655 57.222L36.5228 57.2233H36.1288C32.1927 56.9912 29.1763 53.6208 29.3319 49.6621L29.3382 49.53L29.3185 49.5343ZM63.326 49.4524C63.5544 45.4419 66.9627 42.3773 70.9381 42.6077C71.8824 42.6565 72.8077 42.8946 73.6599 43.308C74.512 43.7215 75.274 44.302 75.9014 45.0157C76.8197 46.0528 77.424 47.3337 77.6426 48.7067C77.8613 50.0797 77.6852 51.4872 77.1351 52.7623C76.585 54.0373 75.6841 55.1266 74.5392 55.9009C73.3942 56.6752 72.0531 57.102 70.675 57.1309L70.5282 57.1326H70.1104C66.135 56.9022 63.0973 53.4638 63.3256 49.4532L63.326 49.4524ZM12.1676 49.7832C12.2217 48.8216 12.6522 47.9212 13.3644 47.2798C14.0766 46.6384 15.0121 46.3086 15.9652 46.3629C16.9188 46.4183 17.8115 46.8533 18.4474 47.5723C19.0832 48.2913 19.4102 49.2355 19.3564 50.1975C19.3019 51.1593 18.871 52.0598 18.1584 52.701C17.4458 53.3421 16.5099 53.6715 15.5566 53.6165C14.6033 53.5616 13.7107 53.1269 13.0751 52.408C12.4396 51.6891 12.1131 50.7449 12.1676 49.7832ZM87.7106 49.6186C87.7697 48.6606 88.2024 47.7652 88.914 47.1281C89.6256 46.4909 90.5582 46.1638 91.5082 46.2183C92.4581 46.2728 93.348 46.7044 93.9834 47.4188C94.6189 48.1332 94.9482 49.0723 94.8994 50.0309C94.8446 50.9929 94.4135 51.8937 93.7007 52.5352C92.988 53.1768 92.052 53.5067 91.0984 53.4524C90.1453 53.3971 89.253 52.9623 88.6177 52.2434C87.9824 51.5246 87.6561 50.5806 87.7106 49.6191V49.6186ZM2.37102 47.6832L2.45802 47.6866C2.76373 47.7033 3.06315 47.7808 3.33908 47.9147C3.61501 48.0485 3.86201 48.236 4.06589 48.4664C4.26977 48.6969 4.42652 48.9657 4.52712 49.2574C4.62773 49.5491 4.67021 49.858 4.65213 50.1663C4.62589 50.6262 4.4662 51.068 4.19293 51.437C3.91966 51.806 3.54488 52.0858 3.11522 52.2415C2.68555 52.3973 2.21998 52.4221 1.77643 52.313C1.33287 52.2038 0.930921 51.9655 0.620583 51.6277C0.310244 51.2899 0.105222 50.8675 0.031025 50.413C-0.0431717 49.9585 0.0167333 49.4921 0.203286 49.0717C0.389839 48.6513 0.694804 48.2955 1.08023 48.0487C1.46567 47.8018 1.91455 47.6747 2.37102 47.6832ZM104.776 47.4406L104.873 47.4444C105.49 47.4813 106.067 47.7634 106.478 48.2289C106.89 48.6944 107.101 49.3053 107.067 49.9279C107.041 50.3882 106.881 50.8306 106.607 51.2C106.334 51.5694 105.959 51.8497 105.529 52.0059C105.099 52.162 104.633 52.1873 104.189 52.0785C103.745 51.9697 103.342 51.7316 103.031 51.3939C102.72 51.0561 102.514 50.6336 102.439 50.1788C102.364 49.724 102.423 49.257 102.609 48.8358C102.795 48.4146 103.099 48.0578 103.485 47.8098C103.87 47.5617 104.319 47.4333 104.776 47.4406ZM44.9998 27.817C46.3337 27.8106 47.6431 28.1789 48.7813 28.8808C49.9194 29.5826 50.8415 30.5902 51.4441 31.7908C52.0009 32.9002 52.2665 34.1351 52.2156 35.3776C52.1648 36.62 51.7991 37.8286 51.1536 38.8879C50.508 39.9473 49.6041 40.822 48.5281 41.4286C47.4521 42.0353 46.24 42.3536 45.0073 42.3532C43.6705 42.3574 42.359 41.9851 41.2206 41.2781C40.0821 40.5711 39.1619 39.5576 38.5634 38.3516C38.0131 37.2432 37.7526 36.0113 37.8066 34.7729C37.8607 33.5344 38.2275 32.3304 38.8722 31.2751C39.517 30.2199 40.4183 29.3482 41.4907 28.743C42.5631 28.1378 43.771 27.819 44.9998 27.817ZM62.0044 27.7655C63.6082 27.7676 65.1656 28.3093 66.43 29.3048C67.6943 30.3003 68.5935 31.6928 68.9851 33.2619C69.3768 34.8309 69.2385 36.4869 68.5923 37.9678C67.946 39.4487 66.8287 40.6698 65.4171 41.438C64.0055 42.2062 62.3803 42.4775 60.7986 42.2089C59.217 41.9404 57.7693 41.1474 56.6847 39.9555C55.6001 38.7635 54.9404 37.2407 54.8102 35.628C54.68 34.0153 55.0866 32.4049 55.9658 31.0516C56.6229 30.0413 57.519 29.2119 58.5732 28.6382C59.6274 28.0645 60.8066 27.7646 62.0044 27.7655ZM24.7492 32.9355C26.0328 30.9608 28.6598 30.4094 30.6172 31.7043C32.5746 32.9988 33.1212 35.6494 31.8385 37.6241C30.5549 39.5988 27.9279 40.1507 25.9705 38.8562C25.5045 38.5487 25.1032 38.1516 24.7895 37.6875C24.4759 37.2233 24.256 36.7014 24.1426 36.1514C24.0291 35.6015 24.0243 35.0343 24.1284 34.4825C24.2325 33.9307 24.4435 33.405 24.7492 32.9355ZM76.8073 31.3499C77.3043 31.0967 77.846 30.9448 78.4012 30.9031C78.9565 30.8613 79.5144 30.9304 80.0432 31.1065C80.5719 31.2825 81.061 31.5621 81.4825 31.9291C81.904 32.2961 82.2497 32.7433 82.4996 33.2452C83.5524 35.3545 82.7109 37.9254 80.6205 38.9878C78.5297 40.0499 75.9813 39.2009 74.9282 37.0921C73.8754 34.9828 74.7169 32.4119 76.8073 31.3494V31.3499ZM10.7301 24.9001C11.1614 24.2364 11.8364 23.7727 12.6066 23.6111C12.988 23.531 13.3812 23.5276 13.7639 23.6009C14.1466 23.6742 14.5113 23.8228 14.837 24.0383C15.1628 24.2537 15.4433 24.5318 15.6625 24.8566C15.8817 25.1815 16.0354 25.5467 16.1147 25.9314C16.1941 26.3161 16.1975 26.7129 16.1248 27.0989C16.0522 27.485 15.9049 27.8529 15.6913 28.1815C15.26 28.8452 14.5849 29.3089 13.8147 29.4705C13.0445 29.6321 12.2422 29.4785 11.5843 29.0433C10.9264 28.6082 10.4668 27.9272 10.3066 27.1502C10.1464 26.3732 10.2987 25.5638 10.7301 24.9001ZM92.4183 23.6891C93.1195 23.343 93.9276 23.2897 94.6675 23.5407C95.4074 23.7917 96.0194 24.3268 96.3707 25.0301C96.7221 25.7333 96.7845 26.5479 96.5445 27.2972C96.3044 28.0466 95.7812 28.6702 95.0884 29.033C94.3852 29.3898 93.5704 29.4504 92.823 29.2015C92.0755 28.9526 91.4566 28.4146 91.1021 27.7056C90.7489 26.9968 90.6891 26.1755 90.9359 25.4222C91.1827 24.669 91.7159 24.0454 92.4183 23.6887V23.6891ZM49.2341 20.2984C49.368 17.9419 51.3705 16.1406 53.7068 16.2748C56.0427 16.4089 57.829 18.4279 57.6969 20.7853C57.5651 23.1419 55.5647 24.9448 53.2284 24.8127C50.8899 24.6781 49.102 22.6575 49.2341 20.2984ZM32.9543 13.7047C33.3766 13.4901 33.8366 13.3615 34.3081 13.3262C34.7796 13.2909 35.2534 13.3496 35.7024 13.4991C36.1514 13.6485 36.5668 13.8857 36.925 14.1971C37.2831 14.5085 37.5769 14.888 37.7897 15.314C38.0024 15.74 38.1299 16.204 38.1649 16.6797C38.1999 17.1554 38.1416 17.6334 37.9935 18.0863C37.8454 18.5393 37.6103 18.9584 37.3016 19.3197C36.9929 19.681 36.6167 19.9774 36.1945 20.1921C35.3418 20.6255 34.3533 20.6995 33.4465 20.3977C32.5397 20.0959 31.7888 19.4431 31.3592 18.5828C30.9295 17.7225 30.8562 16.7253 31.1553 15.8105C31.4545 14.8956 32.1016 14.1382 32.9543 13.7047ZM69.3233 14.8701C69.7132 14.2684 70.2713 13.7968 70.9269 13.5149C71.5825 13.2331 72.3061 13.1536 73.0065 13.2866C73.7068 13.4196 74.3523 13.7591 74.8615 14.2621C75.3706 14.7652 75.7205 15.4092 75.8669 16.1128C76.0133 16.8164 75.9497 17.548 75.684 18.2151C75.4184 18.8822 74.9627 19.4549 74.3745 19.8608C73.7862 20.2666 73.092 20.4875 72.3794 20.4954C71.6668 20.5033 70.9679 20.2979 70.371 19.9051C69.9739 19.6445 69.6317 19.3073 69.364 18.9129C69.0963 18.5186 68.9084 18.0748 68.8111 17.607C68.7138 17.1393 68.7089 16.6567 68.7968 16.1871C68.8847 15.7174 69.0636 15.2699 69.3233 14.8701ZM26.766 3.13088C27.3166 2.85274 27.9539 2.80562 28.5388 2.9998C29.1238 3.19398 29.6088 3.6137 29.8881 4.16735C30.1674 4.721 30.2182 5.36362 30.0296 5.95496C29.8409 6.5463 29.428 7.03835 28.8811 7.32371C28.6066 7.46526 28.3072 7.55063 27.9999 7.57489C27.6926 7.59916 27.3836 7.56183 27.0907 7.46507C26.7978 7.36831 26.5268 7.21403 26.2932 7.01111C26.0597 6.8082 25.8683 6.56067 25.73 6.28278C25.4542 5.72602 25.4084 5.08169 25.6026 4.49093C25.7968 3.90016 26.2151 3.4111 26.766 3.13088ZM77.0867 3.82286C77.2543 3.56426 77.4707 3.34149 77.7235 3.16726C77.9764 2.99303 78.2609 2.87076 78.5606 2.80742C78.8603 2.74409 79.1695 2.74093 79.4704 2.79813C79.7714 2.85533 80.0582 2.97177 80.3145 3.1408C80.5709 3.30982 80.7917 3.52813 80.9644 3.78326C81.1371 4.03838 81.2583 4.32532 81.3211 4.6277C81.3839 4.93008 81.387 5.24197 81.3303 5.54557C81.2736 5.84917 81.1582 6.13853 80.9906 6.39712C80.6523 6.91939 80.1222 7.28468 79.5169 7.41263C78.9116 7.54058 78.2807 7.42072 77.763 7.0794C77.2453 6.73809 76.8832 6.20329 76.7564 5.59265C76.6296 4.98201 76.7484 4.34555 77.0867 3.82328V3.82286ZM52.4496 0.168854C52.8187 0.0330894 53.2108 -0.0273619 53.6032 -0.00898987C53.9956 0.00938211 54.3805 0.106211 54.7355 0.275876C55.0906 0.445542 55.4087 0.684663 55.6713 0.979358C55.934 1.27405 56.136 1.61845 56.2657 1.99256C56.3953 2.36667 56.45 2.76303 56.4266 3.15864C56.4032 3.55425 56.3021 3.94123 56.1292 4.2971C55.9563 4.65298 55.7151 4.97066 55.4195 5.23171C55.1239 5.49276 54.7799 5.69198 54.4074 5.8178C53.6679 6.06757 52.8606 6.01348 52.1603 5.66725C51.4601 5.32102 50.9231 4.7105 50.6657 3.96784C50.4083 3.22518 50.4512 2.41014 50.7851 1.69913C51.1189 0.988128 51.7169 0.438368 52.4496 0.168854Z" fill="white"/>
    </g>
    <defs>
        <clipPath id="clip0_419_493">
            <rect width="107.071" height="100" fill="white"/>
        </clipPath>
    </defs>
</svg>
