<svg width="100" height="100" viewBox="0 0 100 100" fill="none" xmlns="http://www.w3.org/2000/svg">
    <path d="M0 30V70H100V30H0ZM50.0083 68C22.1167 68 2 59.8333 2 50C2 40.1667 22.1292 32 50.0083 32C77.8833 32 98 40.1667 98 50C98 59.8333 77.9 68 50.0083 68ZM49.0708 42.7417H66.4708V46.7583C66.0417 46.5625 65.625 46.5625 65.1958 46.5625H57.8708V48.4792H64.9083V51.5292H57.8708V53.4333H65.1958C65.625 53.4333 66.0417 53.4333 66.4708 53.225V57.2542H49.0708C49.2875 56.8333 49.2875 56.4292 49.2875 56.0083V44C49.2875 43.5792 49.2875 43.175 49.0708 42.7417ZM19.5875 44V56.0042C19.5875 56.425 19.5875 56.8292 19.8042 57.25H10C10.2167 56.8292 10.2167 56.425 10.2167 56.0042V44C10.2167 43.5792 10.2167 43.175 10 42.7542H19.8042C19.5875 43.175 19.5875 43.5792 19.5875 44ZM46.45 56.0042C46.7667 56.45 47.1083 56.8708 47.5125 57.25H36.6875C36.6875 56.8292 36.2708 55.975 35.8125 55.3042C35.3542 54.6333 32.875 50.9542 32.875 50.9542V56.0042C32.875 56.425 32.875 56.8292 33.0917 57.25H24.075C24.2917 56.8292 24.2917 56.425 24.2917 56.0042V44C24.2917 43.5792 24.2917 43.175 24.075 42.7542H33.0917C32.875 43.175 32.875 43.5792 32.875 44V49.2458C32.875 49.2458 35.7542 45.5792 36.4167 44.725C36.9167 44.0833 37.5333 43.1708 37.5333 42.7542H46.9375C46.2917 43.175 45.575 43.9292 44.9875 44.6292L41.5458 48.7292C41.5458 48.7292 45.875 55.1792 46.45 56.0042ZM90.3917 43.4833C90.3917 43.2888 90.3153 43.102 90.1789 42.9633C90.0425 42.8245 89.857 42.7449 89.6625 42.7417H88.7875V45.0375H89.1333V44.225H89.6333L90.0917 45.0375H90.4792L89.9792 44.1542C90.1022 44.0901 90.2055 43.9939 90.2781 43.8758C90.3508 43.7576 90.39 43.622 90.3917 43.4833ZM89.6042 43.9042H89.1292V43.1083H89.6458C89.875 43.1083 90.0333 43.3042 90.0333 43.5292C90.0333 43.75 89.8333 43.9167 89.6042 43.9042ZM89.5167 42H89.3875C89.1424 42.0038 88.9005 42.0562 88.6758 42.1543C88.4511 42.2523 88.2482 42.394 88.0788 42.5712C87.9094 42.7484 87.7769 42.9575 87.6889 43.1863C87.601 43.4151 87.5595 43.6591 87.5667 43.9042C87.5667 43.9333 87.5667 43.975 87.5542 44C87.5748 44.5129 87.7976 44.9967 88.174 45.3457C88.5503 45.6947 89.0495 45.8805 89.5625 45.8625C89.8164 45.8592 90.0672 45.806 90.3005 45.7058C90.5338 45.6056 90.7451 45.4605 90.9223 45.2786C91.0995 45.0968 91.2392 44.8818 91.3333 44.6459C91.4274 44.4101 91.4741 44.1581 91.4708 43.9042V43.8333C91.4633 43.5845 91.4067 43.3396 91.3044 43.1127C91.202 42.8858 91.0559 42.6813 90.8743 42.511C90.6928 42.3407 90.4794 42.2079 90.2464 42.1202C90.0134 42.0325 89.7654 41.9917 89.5167 42ZM89.5167 45.4292C89.1077 45.4325 88.714 45.2741 88.4213 44.9885C88.1287 44.7028 87.9607 44.3131 87.9542 43.9042V43.7917C87.9638 43.5962 88.0118 43.4046 88.0956 43.2278C88.1794 43.051 88.2972 42.8924 88.4423 42.7612C88.5875 42.63 88.7571 42.5287 88.9414 42.4632C89.1258 42.3976 89.3213 42.3691 89.5167 42.3792C90.375 42.3792 91.0792 43.0667 91.0792 43.9042C91.0792 44.7417 90.3792 45.4292 89.5167 45.4292ZM85.8625 44.0167C85.7042 43.5958 85.475 43.1917 85.5917 42.7708H73.0208C73.0792 43.1917 72.9208 43.5958 72.7625 44.0167L68.3042 56.0208C68.1652 56.4772 67.9356 56.901 67.6292 57.2667H75.0667C75.0083 56.8458 75.1667 56.4417 75.3083 56.0208C75.45 55.6 75.6083 55.1958 75.6083 55.1958L75.6958 54.9708H81.1292L81.2167 55.1792C81.4167 55.6708 81.5625 56.0042 81.5625 56.0042C81.7333 56.425 81.8917 56.8292 81.85 57.25H91.2792C90.9608 56.8879 90.7211 56.4637 90.575 56.0042C89.0131 52.0048 87.4423 48.009 85.8625 44.0167ZM76.8333 51.9042C77.4792 50.1542 78.0375 48.6875 78.0792 48.5458C78.1958 48.2375 78.2792 47.9167 78.3375 47.5958C78.4083 47.9167 78.5083 48.2375 78.625 48.5458L79.9417 51.9042H76.8333Z" fill="white"/>
</svg>
