<svg width="100" height="100" viewBox="0 0 100 100" fill="none" xmlns="http://www.w3.org/2000/svg">
    <g clip-path="url(#clip0_419_495)">
        <path d="M50 0C77.5958 0 100 22.4042 100 50C100 77.5958 77.5958 100 50 100C22.4042 100 0 77.5958 0 50C0 22.4042 22.4042 0 50 0ZM13.5208 73.0792C17.4129 79.2331 22.7987 84.3021 29.177 87.8144C35.5553 91.3266 42.7186 93.1679 50 93.1667C65.3375 93.1667 78.8208 85.15 86.4792 73.0792L50 59.1792L13.5208 73.0792ZM57.95 45.4083L88.2292 70.0542C91.4819 63.8707 93.1768 56.9869 93.1667 50C93.1667 26.7625 74.7625 7.7875 51.75 6.86667L57.95 45.4083ZM48.25 6.86667C25.2375 7.7875 6.83333 26.7625 6.83333 50C6.83333 57.2375 8.61667 64.0583 11.7708 70.0542L42.05 45.4083L48.25 6.86667Z" fill="white"/>
    </g>
    <defs>
        <clipPath id="clip0_419_495">
            <rect width="100" height="100" fill="white"/>
        </clipPath>
    </defs>
</svg>
