<svg width="100" height="100" viewBox="0 0 100 100" fill="none" xmlns="http://www.w3.org/2000/svg">
    <path d="M18.1 56.6584C18.4125 57.8292 18.9125 58.2834 19.7958 58.2834C20.7125 58.2834 21.1917 57.7334 21.1917 56.6584V36.6834H26.9375V56.6584C26.9375 59.4709 26.5708 60.6917 25.1458 62.1167C24.1167 63.15 22.2167 63.9459 19.8208 63.9459C17.8875 63.9459 16.0333 63.3042 14.8542 62.1209C13.8167 61.0792 13.2458 60.0167 12.3583 56.6584L8.83333 43.3417C8.525 42.1709 8.025 41.7167 7.14167 41.7167C6.225 41.7167 5.74167 42.2667 5.74167 43.3417V63.3167H0V43.3417C0 40.5292 0.366667 39.3084 1.79167 37.8834C2.82083 36.85 4.72083 36.0542 7.11667 36.0542C9.05 36.0542 10.9042 36.6959 12.0833 37.8792C13.1208 38.9209 13.6875 39.9834 14.5792 43.3417L18.1 56.6584ZM94.0625 63.3167L87.4333 42.5667C87.3829 42.3701 87.2983 42.1839 87.1833 42.0167C87.0898 41.9032 86.971 41.8132 86.8364 41.7538C86.7018 41.6945 86.5552 41.6675 86.4083 41.675C86.2621 41.6682 86.1163 41.6955 85.9825 41.7548C85.8487 41.8141 85.7306 41.9038 85.6375 42.0167C85.5225 42.1839 85.4378 42.3701 85.3875 42.5667L78.7583 63.3167H72.8208L80.0667 40.65C80.4417 39.4709 80.9833 38.4667 81.6667 37.8C82.8417 36.6542 84.225 36.0542 86.4083 36.0542C88.5958 36.0542 89.9792 36.6542 91.1542 37.8042C91.8375 38.4709 92.3792 39.4709 92.7542 40.65L100 63.3167H94.0625ZM64.7125 63.3167C68.475 63.3167 70.3125 62.5167 71.7625 61.075C73.3667 59.4792 74.1333 57.7334 74.1333 55.1292C74.1333 52.825 73.2917 50.6959 72.0083 49.4209C70.3292 47.7542 68.2458 47.225 64.8458 47.225H60.0875C58.2708 47.225 57.5458 47.0042 56.9708 46.4417C56.5792 46.0542 56.3917 45.4834 56.3917 44.8042C56.3917 44.1042 56.5583 43.4125 57.0417 42.9375C57.4708 42.5209 58.0542 42.325 59.1708 42.325H72.925V36.6834H60.2208C56.4583 36.6834 54.625 37.4834 53.175 38.925C51.5708 40.5209 50.8 42.2667 50.8 44.8709C50.8 47.175 51.6458 49.3042 52.925 50.5792C54.6083 52.2459 56.6917 52.775 60.0917 52.775H64.8458C66.6667 52.775 67.3875 52.9959 67.9625 53.5584C68.3583 53.9459 68.5458 54.5167 68.5458 55.1959C68.5458 55.9 68.375 56.5917 67.8917 57.0625C67.4667 57.4792 66.8833 57.675 65.7667 57.675H51.5792L46.1375 40.65C45.7625 39.4709 45.2208 38.4667 44.5375 37.8C43.3625 36.6542 41.975 36.0542 39.7917 36.0542C37.6083 36.0542 36.2208 36.6542 35.05 37.8042C34.3625 38.4709 33.825 39.4709 33.4458 40.65L26.2042 63.3167H32.1375L38.7708 42.5667C38.8212 42.3701 38.9059 42.1839 39.0208 42.0167C39.1139 41.9038 39.2321 41.8141 39.3659 41.7548C39.4997 41.6955 39.6455 41.6682 39.7917 41.675C40.1333 41.675 40.3833 41.7917 40.5667 42.0167C40.6818 42.1839 40.7664 42.3701 40.8167 42.5667L47.4458 63.3167H64.7125Z" fill="white"/>
</svg>
