<svg width="100" height="100" viewBox="0 0 100 100" fill="none" xmlns="http://www.w3.org/2000/svg">
    <g clip-path="url(#clip0_419_487)">
        <path d="M50 22.3469L60.3187 9.73438C60.3187 9.73438 77.9938 10.1094 95.6062 18.2969C91.0969 25.1156 82.1469 28.4531 82.1469 28.4531C81.5438 22.4625 77.3469 21 64 21L50.0031 100.003L35.9094 20.9844C22.6594 20.9844 18.4625 22.45 17.8594 28.4375C17.8594 28.4375 8.90625 25.1344 4.4 18.3125C22.0094 10.125 39.6875 9.75 39.6875 9.75L50.0063 22.3469H49.9906H50ZM50 6.10312C64.225 5.97187 80.5188 8.3 97.2 15.5906C99.4313 11.5531 100 9.78125 100 9.78125C81.7719 2.55313 64.6969 0.065625 50 0C35.3031 0.065625 18.2281 2.54063 0 9.78125C0 9.78125 0.8125 11.9781 2.8 15.6094C19.4844 8.28437 35.775 5.975 50 6.0875V6.10312Z" fill="white"/>
    </g>
    <defs>
        <clipPath id="clip0_419_487">
            <rect width="100" height="100" fill="white"/>
        </clipPath>
    </defs>
</svg>
