<svg width="278" height="385" viewBox="0 0 278 385" fill="none" xmlns="http://www.w3.org/2000/svg">
    <path d="M193.977 131.131C192.555 131.776 191.127 132.421 189.679 133.066C189.194 133.266 188.716 133.466 188.225 133.659C187.352 134.008 186.473 134.343 185.594 134.672C185.251 134.794 184.909 134.923 184.566 135.04C183.984 135.252 183.409 135.452 182.821 135.652L181.528 136.078L180.113 136.523L178.691 136.949L177.262 137.355C176.306 137.62 175.323 137.871 174.379 138.11C173.897 138.23 173.412 138.346 172.925 138.458C171.955 138.686 170.979 138.901 169.997 139.103C155.972 141.933 141.522 141.933 127.498 139.103C126.024 138.807 124.563 138.478 123.115 138.116C122.63 138 122.152 137.878 121.667 137.749L120.232 137.362L118.804 136.955L117.382 136.53L116.089 136.117C113.788 135.377 111.521 134.56 109.289 133.666C108.804 133.472 108.32 133.279 107.835 133.072C106.387 132.472 104.952 131.834 103.536 131.137L193.977 131.131Z" fill="#921922"/>
    <path d="M143.948 183.521C144.676 183.555 145.407 183.575 146.139 183.579C147.012 183.579 147.878 183.579 148.725 183.579H151.052C148.809 183.585 146.417 183.579 143.948 183.521ZM258.841 134.981C259.979 133.737 261.091 132.479 262.177 131.195C261.086 132.481 259.975 133.743 258.841 134.981Z" fill="#1E1E1E"/>
    <path d="M212.503 317.541V348.136L169.997 338.46V335.041L160.017 325.082L181.27 303.866L190.035 295.12L196.951 302.022L212.503 317.541Z" fill="#921922"/>
    <path d="M212.503 384.342H169.997V345.033L212.503 355.038V384.342Z" fill="#1E1E1E"/>
    <path d="M51.7425 78.4823L10.4391 89.9189C9.51258 87.5967 8.65075 85.2466 7.85355 82.8685C2.63661 67.4934 -0.016469 51.3681 7.69153e-05 35.1354V15.7842L42.4928 0V35.1548C42.4744 50.0872 45.6268 64.854 51.7425 78.4823Z" fill="#1E1E1E"/>
    <path d="M143.185 183.502C137.921 183.44 132.67 182.972 127.478 182.102C128.301 182.218 129.122 182.328 129.941 182.431L130.335 182.476C131.033 182.566 131.738 182.65 132.442 182.721L132.869 182.766C133.658 182.85 134.446 182.928 135.241 182.998C136.036 183.069 136.676 183.127 137.4 183.179L139.216 183.302C139.831 183.347 140.445 183.379 141.059 183.411L143.185 183.502Z" fill="#1E1E1E"/>
    <path d="M169.997 182.102C166.843 182.94 159.222 183.327 154.665 183.489H155.007C155.518 183.489 156.035 183.45 156.546 183.418C157.192 183.385 157.839 183.353 158.485 183.308C160.502 183.179 162.505 183.009 164.496 182.798C165.065 182.74 165.627 182.682 166.19 182.611C166.752 182.54 167.483 182.463 168.097 182.379L169.997 182.102Z" fill="#1E1E1E"/>
    <path d="M278 109.051C265.758 130.931 245.455 154.72 212.503 169.311C223.92 163.895 234.6 157.049 244.285 148.94C245.578 147.889 246.786 146.812 248.008 145.715L248.099 145.631C248.745 145.07 249.346 144.502 249.967 143.928C250.587 143.354 251.065 142.896 251.615 142.38C252.261 141.735 252.946 141.09 253.606 140.445C254.265 139.8 254.795 139.258 255.383 138.652C255.971 138.045 256.547 137.446 257.128 136.833C257.71 136.22 258.273 135.607 258.841 134.982C259.975 133.743 261.086 132.481 262.177 131.195C262.59 130.711 263.004 130.221 263.405 129.731C264.122 128.873 264.82 128.009 265.512 127.151C265.861 126.712 266.21 126.273 266.546 125.828C267.057 125.183 267.561 124.538 268.046 123.855C268.304 123.513 268.563 123.171 268.809 122.829C269.565 121.81 270.302 120.771 271.032 119.726C271.232 119.442 271.426 119.152 271.627 118.862C272.099 118.178 272.57 117.482 273.023 116.778C273.424 116.185 273.818 115.585 274.199 114.979C274.581 114.372 274.956 113.792 275.324 113.192C275.615 112.728 275.899 112.257 276.184 111.786C276.468 111.315 276.752 110.844 277.03 110.373C277.308 109.902 277.586 109.425 277.858 108.948L278 109.051Z" fill="#1E1E1E"/>
    <path opacity="0.26" d="M196.951 302.022L166.927 331.977L160.017 325.082L181.27 303.866L190.035 295.12L196.951 302.022Z" fill="#921922"/>
    <path d="M277.864 108.922C277.593 109.399 277.315 109.87 277.037 110.347C276.759 110.825 276.475 111.289 276.19 111.76C275.906 112.231 275.621 112.702 275.331 113.166C274.962 113.766 274.587 114.366 274.206 114.953C273.824 115.54 273.43 116.159 273.029 116.753C272.577 117.456 272.105 118.152 271.633 118.836C271.433 119.126 271.239 119.417 271.039 119.7C270.308 120.745 269.571 121.784 268.815 122.803C268.569 123.145 268.311 123.487 268.052 123.829C267.568 124.474 267.063 125.151 266.553 125.803C266.217 126.248 265.868 126.686 265.519 127.125C264.827 128.002 264.129 128.866 263.411 129.705C263.011 130.195 262.597 130.686 262.183 131.169C261.093 132.459 259.981 133.722 258.848 134.956C258.279 135.601 257.71 136.194 257.135 136.807C256.56 137.42 255.972 138.026 255.39 138.626C254.808 139.226 254.207 139.826 253.612 140.419C253.018 141.013 252.32 141.709 251.621 142.354C251.072 142.87 250.523 143.393 249.973 143.902C249.424 144.412 248.732 145.044 248.105 145.605L248.015 145.689C246.793 146.779 245.552 147.857 244.292 148.914C234.607 157.023 223.927 163.869 212.509 169.285L170.004 182.076L168.103 182.334C167.457 182.418 166.81 182.495 166.196 182.566C165.582 182.637 165.072 182.695 164.503 182.753C162.512 182.968 160.508 183.138 158.492 183.263C157.845 183.308 157.199 183.34 156.552 183.373C156.042 183.405 155.525 183.424 155.014 183.444H154.671H154.626L153.76 183.476H153.508H153.03H152.991H152.435H152.041C151.73 183.476 151.394 183.476 151.103 183.476C148.848 183.476 146.443 183.476 143.993 183.411H143.231L141.149 183.321C140.535 183.321 139.921 183.256 139.307 183.211L137.491 183.089C136.767 183.037 136.049 182.973 135.332 182.908C134.614 182.844 133.748 182.76 132.96 182.676L132.533 182.631C131.829 182.56 131.124 182.476 130.426 182.386L130.032 182.34C129.209 182.237 128.388 182.128 127.569 182.012C112.835 179.912 98.504 175.6 85.0632 169.22C51.0624 153.117 24.4098 124.793 10.4391 89.9188L51.7425 78.4823C59.1338 94.8958 70.5731 109.172 84.9921 119.978C86.1491 120.849 87.3255 121.687 88.5213 122.513C88.9221 122.784 89.3228 123.061 89.7236 123.326L90.8483 124.074L92.141 124.906C92.5483 125.164 92.9555 125.422 93.3691 125.667C93.7828 125.912 94.1965 126.177 94.6167 126.415C95.0368 126.654 95.3729 126.867 95.7543 127.06L97.144 127.854L98.4368 128.544C98.8634 128.776 99.2964 129.002 99.7295 129.228C100.975 129.873 102.237 130.496 103.517 131.098C104.933 131.743 106.368 132.388 107.816 133.033C108.3 133.24 108.785 133.433 109.27 133.627C111.498 134.517 113.764 135.334 116.07 136.078L117.363 136.491L118.785 136.917L120.213 137.323L121.648 137.71C122.133 137.839 122.611 137.962 123.096 138.078C124.544 138.439 126.005 138.768 127.478 139.065C141.503 141.894 155.953 141.894 169.978 139.065C170.96 138.862 171.936 138.647 172.906 138.42C173.393 138.312 173.877 138.196 174.36 138.071C175.323 137.839 176.299 137.587 177.243 137.317L178.671 136.91L180.093 136.484L181.509 136.039L182.802 135.614C183.39 135.414 183.965 135.214 184.547 135.001C184.89 134.885 185.232 134.756 185.575 134.633C186.454 134.304 187.333 133.988 188.205 133.62C188.697 133.427 189.175 133.227 189.66 133.027C191.108 132.427 192.536 131.789 193.958 131.092C195.682 130.288 197.375 129.428 199.039 128.512L200.331 127.815L201.624 127.099C202.486 126.617 203.322 126.123 204.132 125.615L205.089 125.028C207.644 123.429 210.124 121.728 212.529 119.926C213.104 119.494 213.673 119.062 214.235 118.636C214.571 118.372 214.881 118.114 215.237 117.843C215.683 117.488 216.129 117.127 216.568 116.759C217.008 116.391 217.331 116.114 217.706 115.804C218.352 115.237 219.044 114.656 219.697 114.069L220.66 113.192C221.138 112.76 221.61 112.315 222.076 111.87C222.67 111.308 223.258 110.741 223.834 110.154C224.008 109.993 224.176 109.818 224.344 109.644C224.687 109.302 225.023 108.96 225.353 108.612C225.598 108.363 225.837 108.111 226.07 107.857C226.406 107.509 226.717 107.154 227.059 106.8C229.119 104.568 231.075 102.25 232.928 99.846C233.213 99.4784 233.491 99.1171 233.762 98.7495C234.262 98.1001 234.747 97.4422 235.216 96.7756L235.927 95.7823C236.102 95.5243 236.283 95.2727 236.457 95.0082C237.718 93.1828 238.92 91.3057 240.064 89.3964C240.29 89.0222 240.51 88.6481 240.711 88.2675C241.027 87.7193 241.357 87.171 241.648 86.6227C241.868 86.2357 242.081 85.8486 242.294 85.4552C243.721 82.8105 245.041 80.1013 246.257 77.3276L277.864 108.922Z" fill="#1E1E1E"/>
    <path d="M151.078 183.585H148.751C147.878 183.585 147.012 183.585 146.165 183.585C145.437 183.585 144.706 183.566 143.974 183.527C146.417 183.579 148.809 183.585 151.078 183.585Z" fill="#1E1E1E"/>
    <path d="M84.9922 337.06L127.498 353.232V379.775H84.9922V337.06Z" fill="#1E1E1E"/>
    <path d="M148.751 253.921L127.259 275.362L118.733 283.877L119.496 283.122L125.656 276.968L148.544 253.714L148.751 253.921Z" fill="#1E1E1E"/>
    <path d="M169.997 232.299V232.712L148.751 253.921L148.544 253.714L169.997 232.299Z" fill="#1E1E1E"/>
    <path d="M212.503 168.12V249.015L210.337 251.175L178.768 282.686L169.997 291.433L148.751 312.642L127.498 333.851V346.919L84.9922 330.748V316.351L118.733 282.686L127.259 274.171L148.751 252.73L169.997 231.521V180.911L212.503 168.12Z" fill="#1E1E1E"/>
    <path d="M127.498 353.232V379.775H84.9922V337.06L127.498 353.232Z" fill="#1E1E1E"/>
    <path d="M196.951 302.022L212.503 317.541V348.136L169.997 338.46V335.041L160.017 325.082L181.27 303.866L190.035 295.12L196.951 302.022Z" fill="#1E1E1E"/>
    <path d="M146.256 250.24L116.238 280.196L113.905 277.867L107.441 271.417L84.9728 248.995V168.12C98.4135 174.499 112.744 178.812 127.478 180.911V231.521L146.256 250.24Z" fill="#921922"/>
</svg>
