<svg width="1440" height="1601" viewBox="0 0 1440 1601" fill="none" xmlns="http://www.w3.org/2000/svg">
    <path d="M317.542 794.725C313.85 858.944 363.239 913.923 427.398 917.619C429.706 917.619 432.014 917.619 434.322 917.619C498.943 917.619 551.102 865.412 550.64 800.731C550.64 736.05 498.481 683.842 433.86 684.305C372.009 684.305 320.773 732.816 317.542 794.725Z" fill="url(#paint0_linear_159_520)"/>
    <path d="M-117.265 764.694C-138.037 763.308 -156.038 779.478 -156.961 800.269C-157.884 821.059 -142.191 839.078 -121.42 840.002C-100.649 841.388 -83.1086 825.217 -81.7238 804.427C-80.3391 783.637 -96.4944 766.08 -117.265 764.694Z" fill="url(#paint1_linear_159_520)"/>
    <path d="M310.157 117.419C328.62 108.179 336.005 85.0781 326.774 66.5977C317.542 48.1173 294.463 40.7252 276 49.9653C257.537 59.2055 250.152 81.844 259.383 100.324C268.615 119.267 291.232 127.121 310.157 117.419Z" fill="url(#paint2_linear_159_520)"/>
    <path d="M428.321 323.937C456.939 309.615 468.479 274.502 454.17 245.857C439.861 217.213 404.781 205.663 376.163 219.985C347.545 234.307 336.005 269.42 350.314 298.064C364.623 326.709 399.703 338.259 428.321 323.937Z" fill="url(#paint3_linear_159_520)"/>
    <path d="M30.44 465.774C52.5958 480.096 82.1368 474.09 96.9074 451.914C111.216 429.737 105.216 400.169 83.06 385.384C60.9042 371.062 31.3631 377.068 16.5926 399.245C1.82202 421.421 8.28413 451.452 30.44 465.774Z" fill="url(#paint4_linear_159_520)"/>
    <path d="M101.062 743.904C68.751 742.056 41.5179 766.542 39.6715 798.883C37.8252 831.224 62.2889 858.482 94.5995 860.33C126.91 862.178 154.143 837.692 155.99 805.351C157.836 773.472 133.372 745.752 101.062 743.904Z" fill="url(#paint5_linear_159_520)"/>
    <path d="M36.9021 1135.23C13.3615 1147.24 3.66837 1175.88 15.6694 1199.91C27.6705 1223.47 56.2884 1233.17 80.2905 1221.16C103.831 1209.15 113.524 1180.5 101.523 1156.48C89.5221 1132.92 60.4426 1123.21 36.9021 1135.23Z" fill="url(#paint6_linear_159_520)"/>
    <path d="M263.076 623.319C294.925 644.11 337.39 635.331 357.7 603.453C378.471 571.574 369.701 529.069 337.852 508.741C306.003 487.95 263.538 496.729 243.228 528.607C222.457 560.024 231.227 602.529 263.076 623.319Z" fill="url(#paint7_linear_159_520)"/>
    <path d="M980.832 319.317C1007.6 336.873 1044.07 329.481 1061.61 302.685C1079.15 275.888 1071.76 239.389 1044.99 221.833C1018.22 204.277 981.755 211.669 964.215 238.465C946.214 265.724 953.599 301.761 980.832 319.317Z" fill="url(#paint8_linear_159_520)"/>
    <path d="M1099.92 113.723C1117.46 125.273 1140.54 120.191 1152.08 102.634C1163.62 85.0781 1158.54 61.9776 1141 50.4274C1123.46 38.8771 1100.38 43.9592 1088.84 61.0536C1077.76 78.6099 1082.84 102.172 1099.92 113.723Z" fill="url(#paint9_linear_159_520)"/>
    <path d="M989.602 683.38C925.442 679.684 870.053 729.119 866.822 793.339C863.129 857.558 912.518 912.999 976.678 916.233C978.985 916.233 981.293 916.233 983.14 916.233C1047.3 916.233 1099.46 864.026 1099.46 799.345C1099.92 737.897 1051.45 686.614 989.602 683.38Z" fill="url(#paint10_linear_159_520)"/>
    <path d="M466.632 615.003C486.48 654.274 526.638 679.222 570.949 679.222C635.109 679.222 687.267 627.015 687.267 562.334C687.267 544.316 683.113 526.297 674.805 509.665C645.725 451.914 575.565 428.813 518.329 457.92C460.632 487.488 437.553 557.714 466.632 615.003Z" fill="url(#paint11_linear_159_520)"/>
    <path d="M1380.1 465.774C1403.64 453.762 1412.87 424.655 1400.87 401.093C1388.87 377.53 1359.79 368.29 1336.25 380.302C1312.71 392.314 1303.48 420.959 1315.02 444.522C1327.48 468.084 1356.1 477.786 1380.1 465.774Z" fill="url(#paint12_linear_159_520)"/>
    <path d="M1084.69 502.735C1050.99 519.829 1037.14 560.948 1054.22 594.675C1071.3 628.401 1112.38 642.262 1146.08 625.167C1179.77 608.073 1193.62 566.954 1176.54 533.227C1159.46 499.501 1118.38 486.102 1084.69 502.735Z" fill="url(#paint13_linear_159_520)"/>
    <path d="M703.884 96.1663C730.194 97.5523 752.812 77.2239 754.658 50.8894C756.504 24.5548 735.733 1.91635 709.423 0.0683164C683.113 -1.31771 660.496 18.5487 658.649 44.8832C657.265 71.6798 677.574 94.3183 703.884 96.1663Z" fill="url(#paint14_linear_159_520)"/>
    <path d="M703.423 397.859C741.272 400.169 773.583 371.062 775.429 333.177C777.737 295.292 748.657 262.952 710.808 261.104C672.958 258.794 640.648 287.9 638.802 325.785C636.955 363.67 665.573 396.01 703.423 397.859Z" fill="url(#paint15_linear_159_520)"/>
    <path d="M332.313 1098.26C366.008 1081.17 379.855 1040.05 362.777 1006.33C345.699 972.598 304.618 958.738 270.923 975.832C237.227 992.927 223.38 1034.05 240.459 1067.77C257.537 1101.5 298.618 1115.36 332.313 1098.26Z" fill="url(#paint16_linear_159_520)"/>
    <path d="M747.734 498.115C712.654 552.17 727.425 624.243 781.43 659.356C835.434 694.469 907.441 679.684 942.521 625.629C977.601 571.574 962.83 499.501 908.825 464.388C889.901 451.914 867.745 445.446 845.128 445.446C805.893 445.446 769.429 465.312 747.734 498.115Z" fill="url(#paint17_linear_159_520)"/>
    <path d="M950.368 985.997C921.288 928.245 851.128 905.145 793.892 934.252C736.195 963.358 713.116 1033.58 742.195 1090.87C771.275 1148.62 841.435 1171.72 898.671 1142.62C955.907 1113.97 979.447 1044.67 950.829 986.921C950.829 986.459 950.829 986.459 950.368 985.997Z" fill="url(#paint18_linear_159_520)"/>
    <path d="M1153.92 977.681C1122.08 956.89 1079.61 965.668 1059.3 997.547C1038.53 1029.43 1047.3 1071.93 1079.15 1092.26C1111 1113.05 1153.46 1104.27 1173.77 1072.39C1194.54 1040.98 1185.77 998.471 1153.92 977.681Z" fill="url(#paint19_linear_159_520)"/>
    <path d="M1377.33 802.579C1379.17 770.238 1354.71 742.98 1322.4 741.132C1290.09 739.284 1262.86 763.77 1261.01 796.111C1259.16 828.451 1283.63 855.71 1315.94 857.558C1347.79 859.406 1375.48 834.458 1377.33 802.579Z" fill="url(#paint20_linear_159_520)"/>
    <path d="M1538.42 760.998C1517.65 759.612 1499.65 775.782 1498.72 796.573C1497.8 817.363 1513.49 835.382 1534.27 836.306C1555.04 837.692 1572.58 821.521 1573.96 800.731C1574.88 779.94 1559.19 762.384 1538.42 760.998Z" fill="url(#paint21_linear_159_520)"/>
    <path d="M1386.56 1135.23C1364.4 1120.9 1334.86 1126.91 1320.09 1149.09C1305.78 1171.26 1311.78 1200.83 1333.94 1215.62C1356.1 1229.94 1385.64 1223.93 1400.41 1201.76C1415.18 1179.58 1408.72 1149.55 1386.56 1135.23Z" fill="url(#paint22_linear_159_520)"/>
    <path d="M316.619 1487.28C299.079 1475.73 276 1480.81 264.461 1497.9C252.921 1515.46 257.999 1538.56 275.077 1550.11C292.617 1561.66 315.696 1556.58 327.235 1539.48C339.237 1522.39 334.159 1498.83 316.619 1487.28Z" fill="url(#paint23_linear_159_520)"/>
    <path d="M1106.84 1483.58C1088.38 1492.82 1080.99 1515.92 1090.23 1534.4C1099.46 1552.88 1122.54 1560.27 1141 1551.03C1159.46 1541.79 1166.85 1519.16 1157.62 1500.68C1148.39 1481.73 1125.77 1473.88 1106.84 1483.58Z" fill="url(#paint24_linear_159_520)"/>
    <path d="M669.266 1102.89C704.346 1048.83 689.575 976.756 635.57 941.182C581.566 906.069 509.559 920.853 474.018 974.908C438.476 1028.96 453.708 1101.04 507.713 1136.61C526.638 1149.09 548.794 1155.55 571.411 1155.55C611.107 1156.02 647.572 1136.15 669.266 1102.89Z" fill="url(#paint25_linear_159_520)"/>
    <path d="M436.168 1281.68C409.397 1264.13 372.932 1271.52 355.392 1298.32C337.852 1325.11 345.237 1361.61 372.009 1379.17C398.78 1396.72 435.245 1389.33 452.785 1362.53C470.787 1335.74 463.401 1299.24 436.168 1281.68Z" fill="url(#paint26_linear_159_520)"/>
    <path d="M708.038 1504.83C681.728 1503.45 659.111 1523.78 657.265 1550.11C655.418 1576.45 676.189 1599.08 702.5 1600.93C728.81 1602.32 751.427 1582.45 753.273 1556.12C754.658 1529.32 734.348 1506.68 708.038 1504.83Z" fill="url(#paint27_linear_159_520)"/>
    <path d="M708.5 1203.14C670.651 1200.83 638.34 1229.94 636.494 1267.82C634.186 1305.71 663.265 1338.05 701.115 1339.9C738.964 1341.74 771.275 1313.1 773.121 1275.21C775.429 1237.79 746.35 1204.99 708.5 1203.14Z" fill="url(#paint28_linear_159_520)"/>
    <path d="M988.679 1277.06C960.061 1291.85 948.521 1326.96 963.292 1355.6C978.062 1384.25 1013.14 1395.8 1041.76 1381.01C1070.38 1366.69 1081.92 1331.58 1067.61 1302.94C1052.84 1274.29 1017.76 1262.28 988.679 1277.06Z" fill="url(#paint29_linear_159_520)"/>
    <defs>
        <linearGradient id="paint0_linear_159_520" x1="1239.5" y1="-97.4999" x2="164" y2="1818.5" gradientUnits="userSpaceOnUse">
            <stop stop-color="#910420"/>
            <stop offset="1" stop-color="#1A0005"/>
        </linearGradient>
        <linearGradient id="paint1_linear_159_520" x1="1239.5" y1="-97.4999" x2="164" y2="1818.5" gradientUnits="userSpaceOnUse">
            <stop stop-color="#910420"/>
            <stop offset="1" stop-color="#1A0005"/>
        </linearGradient>
        <linearGradient id="paint2_linear_159_520" x1="1239.5" y1="-97.4999" x2="164" y2="1818.5" gradientUnits="userSpaceOnUse">
            <stop stop-color="#910420"/>
            <stop offset="1" stop-color="#1A0005"/>
        </linearGradient>
        <linearGradient id="paint3_linear_159_520" x1="1239.5" y1="-97.4999" x2="164" y2="1818.5" gradientUnits="userSpaceOnUse">
            <stop stop-color="#910420"/>
            <stop offset="1" stop-color="#1A0005"/>
        </linearGradient>
        <linearGradient id="paint4_linear_159_520" x1="1239.5" y1="-97.4999" x2="164" y2="1818.5" gradientUnits="userSpaceOnUse">
            <stop stop-color="#910420"/>
            <stop offset="1" stop-color="#1A0005"/>
        </linearGradient>
        <linearGradient id="paint5_linear_159_520" x1="1239.5" y1="-97.4999" x2="164" y2="1818.5" gradientUnits="userSpaceOnUse">
            <stop stop-color="#910420"/>
            <stop offset="1" stop-color="#1A0005"/>
        </linearGradient>
        <linearGradient id="paint6_linear_159_520" x1="1239.5" y1="-97.4999" x2="164" y2="1818.5" gradientUnits="userSpaceOnUse">
            <stop stop-color="#910420"/>
            <stop offset="1" stop-color="#1A0005"/>
        </linearGradient>
        <linearGradient id="paint7_linear_159_520" x1="1239.5" y1="-97.4999" x2="164" y2="1818.5" gradientUnits="userSpaceOnUse">
            <stop stop-color="#910420"/>
            <stop offset="1" stop-color="#1A0005"/>
        </linearGradient>
        <linearGradient id="paint8_linear_159_520" x1="1239.5" y1="-97.4999" x2="164" y2="1818.5" gradientUnits="userSpaceOnUse">
            <stop stop-color="#910420"/>
            <stop offset="1" stop-color="#1A0005"/>
        </linearGradient>
        <linearGradient id="paint9_linear_159_520" x1="1239.5" y1="-97.4999" x2="164" y2="1818.5" gradientUnits="userSpaceOnUse">
            <stop stop-color="#910420"/>
            <stop offset="1" stop-color="#1A0005"/>
        </linearGradient>
        <linearGradient id="paint10_linear_159_520" x1="1239.5" y1="-97.4999" x2="164" y2="1818.5" gradientUnits="userSpaceOnUse">
            <stop stop-color="#910420"/>
            <stop offset="1" stop-color="#1A0005"/>
        </linearGradient>
        <linearGradient id="paint11_linear_159_520" x1="1239.5" y1="-97.4999" x2="164" y2="1818.5" gradientUnits="userSpaceOnUse">
            <stop stop-color="#910420"/>
            <stop offset="1" stop-color="#1A0005"/>
        </linearGradient>
        <linearGradient id="paint12_linear_159_520" x1="1239.5" y1="-97.4999" x2="164" y2="1818.5" gradientUnits="userSpaceOnUse">
            <stop stop-color="#910420"/>
            <stop offset="1" stop-color="#1A0005"/>
        </linearGradient>
        <linearGradient id="paint13_linear_159_520" x1="1239.5" y1="-97.4999" x2="164" y2="1818.5" gradientUnits="userSpaceOnUse">
            <stop stop-color="#910420"/>
            <stop offset="1" stop-color="#1A0005"/>
        </linearGradient>
        <linearGradient id="paint14_linear_159_520" x1="1239.5" y1="-97.4999" x2="164" y2="1818.5" gradientUnits="userSpaceOnUse">
            <stop stop-color="#910420"/>
            <stop offset="1" stop-color="#1A0005"/>
        </linearGradient>
        <linearGradient id="paint15_linear_159_520" x1="1239.5" y1="-97.4999" x2="164" y2="1818.5" gradientUnits="userSpaceOnUse">
            <stop stop-color="#910420"/>
            <stop offset="1" stop-color="#1A0005"/>
        </linearGradient>
        <linearGradient id="paint16_linear_159_520" x1="1239.5" y1="-97.4999" x2="164" y2="1818.5" gradientUnits="userSpaceOnUse">
            <stop stop-color="#910420"/>
            <stop offset="1" stop-color="#1A0005"/>
        </linearGradient>
        <linearGradient id="paint17_linear_159_520" x1="1239.5" y1="-97.4999" x2="164" y2="1818.5" gradientUnits="userSpaceOnUse">
            <stop stop-color="#910420"/>
            <stop offset="1" stop-color="#1A0005"/>
        </linearGradient>
        <linearGradient id="paint18_linear_159_520" x1="1239.5" y1="-97.4999" x2="164" y2="1818.5" gradientUnits="userSpaceOnUse">
            <stop stop-color="#910420"/>
            <stop offset="1" stop-color="#1A0005"/>
        </linearGradient>
        <linearGradient id="paint19_linear_159_520" x1="1239.5" y1="-97.4999" x2="164" y2="1818.5" gradientUnits="userSpaceOnUse">
            <stop stop-color="#910420"/>
            <stop offset="1" stop-color="#1A0005"/>
        </linearGradient>
        <linearGradient id="paint20_linear_159_520" x1="1239.5" y1="-97.4999" x2="164" y2="1818.5" gradientUnits="userSpaceOnUse">
            <stop stop-color="#910420"/>
            <stop offset="1" stop-color="#1A0005"/>
        </linearGradient>
        <linearGradient id="paint21_linear_159_520" x1="1239.5" y1="-97.4999" x2="164" y2="1818.5" gradientUnits="userSpaceOnUse">
            <stop stop-color="#910420"/>
            <stop offset="1" stop-color="#1A0005"/>
        </linearGradient>
        <linearGradient id="paint22_linear_159_520" x1="1239.5" y1="-97.4999" x2="164" y2="1818.5" gradientUnits="userSpaceOnUse">
            <stop stop-color="#910420"/>
            <stop offset="1" stop-color="#1A0005"/>
        </linearGradient>
        <linearGradient id="paint23_linear_159_520" x1="1239.5" y1="-97.4999" x2="164" y2="1818.5" gradientUnits="userSpaceOnUse">
            <stop stop-color="#910420"/>
            <stop offset="1" stop-color="#1A0005"/>
        </linearGradient>
        <linearGradient id="paint24_linear_159_520" x1="1239.5" y1="-97.4999" x2="164" y2="1818.5" gradientUnits="userSpaceOnUse">
            <stop stop-color="#910420"/>
            <stop offset="1" stop-color="#1A0005"/>
        </linearGradient>
        <linearGradient id="paint25_linear_159_520" x1="1239.5" y1="-97.4999" x2="164" y2="1818.5" gradientUnits="userSpaceOnUse">
            <stop stop-color="#910420"/>
            <stop offset="1" stop-color="#1A0005"/>
        </linearGradient>
        <linearGradient id="paint26_linear_159_520" x1="1239.5" y1="-97.4999" x2="164" y2="1818.5" gradientUnits="userSpaceOnUse">
            <stop stop-color="#910420"/>
            <stop offset="1" stop-color="#1A0005"/>
        </linearGradient>
        <linearGradient id="paint27_linear_159_520" x1="1239.5" y1="-97.4999" x2="164" y2="1818.5" gradientUnits="userSpaceOnUse">
            <stop stop-color="#910420"/>
            <stop offset="1" stop-color="#1A0005"/>
        </linearGradient>
        <linearGradient id="paint28_linear_159_520" x1="1239.5" y1="-97.4999" x2="164" y2="1818.5" gradientUnits="userSpaceOnUse">
            <stop stop-color="#910420"/>
            <stop offset="1" stop-color="#1A0005"/>
        </linearGradient>
        <linearGradient id="paint29_linear_159_520" x1="1239.5" y1="-97.4999" x2="164" y2="1818.5" gradientUnits="userSpaceOnUse">
            <stop stop-color="#910420"/>
            <stop offset="1" stop-color="#1A0005"/>
        </linearGradient>
    </defs>
</svg>
