<svg width="114" height="114" viewBox="0 0 114 114" fill="none" xmlns="http://www.w3.org/2000/svg">
    <path fill-rule="evenodd" clip-rule="evenodd" d="M48.2135 1.60943C48.9625 1.75078 49.6881 1.36207 50.4664 1.27372C51.5926 1.09258 52.7316 1.00395 53.8721 1.00869C54.9839 1.0617 56.0899 0.890902 57.1842 1.00869C58.4598 1.12648 59.7296 1.1147 60.9995 1.17949C61.5846 1.17949 62.082 1.41507 62.6496 1.42096L63.9312 1.45041C64.7917 1.50111 65.6469 1.62125 66.4883 1.80967C68.0332 2.08059 69.5898 2.35151 71.1287 2.73433C72.4161 3.05826 73.6742 3.52353 74.985 3.77089C75.5702 3.88868 76.1553 4.20083 76.7405 4.35985C77.6768 4.59543 78.5545 5.02537 79.4967 5.23739C79.8474 5.35486 80.1818 5.51716 80.4915 5.72033C80.946 6.07327 81.4811 6.3061 82.048 6.39763C82.2324 6.42171 82.4076 6.49265 82.5571 6.60377C83.5929 7.19272 84.6579 7.71689 85.6878 8.31174C86.3831 8.61212 87.0542 8.96656 87.6949 9.37186C88.6487 10.1493 89.7839 10.6676 90.7261 11.4744C91.0187 11.7277 91.399 11.8749 91.7092 12.1105C92.5221 12.7039 93.2626 13.3918 93.9152 14.1601C94.3122 14.5737 94.7607 14.934 95.2494 15.232C95.6118 15.5004 95.9452 15.8064 96.2442 16.1448C96.6722 16.6698 97.1504 17.1512 97.672 17.5819C97.9737 17.8358 98.224 18.1457 98.4093 18.4948C98.5933 18.7831 98.8368 19.0282 99.1233 19.2133C99.7282 19.644 100.225 20.2106 100.574 20.8683C100.954 21.3817 101.366 21.8696 101.809 22.3289C102.27 22.8504 102.682 23.4143 103.038 24.0133C103.145 24.2613 103.305 24.4825 103.506 24.6611C104.414 25.4065 105.114 26.3767 105.537 27.4763C105.613 27.6934 105.73 27.8935 105.882 28.0653C106.422 28.6877 106.859 29.3937 107.175 30.1561C107.52 30.7863 107.889 31.3988 108.246 32.029C108.348 32.1829 108.434 32.3467 108.504 32.5178C108.855 33.4896 109.37 34.3907 109.767 35.3389C110.207 36.1999 110.541 37.1116 110.762 38.054C110.913 38.6089 111.131 39.143 111.412 39.6442C111.564 40.0093 111.693 40.3745 111.833 40.7337C112.284 41.9116 112.418 43.1602 112.775 44.3617C112.933 44.8917 112.886 45.4807 113.039 46.0108C113.325 46.9825 113.08 47.9838 113.208 48.9555C113.218 49.1205 113.244 49.2842 113.284 49.4444C113.508 50.3404 113.627 51.2594 113.641 52.183C113.752 53.9499 113.542 55.7697 113.606 57.5602C113.655 58.4471 113.617 59.3367 113.495 60.2164C113.401 60.8053 113.565 61.4296 113.419 62.0362C113.312 62.6465 113.267 63.2661 113.284 63.8856C113.287 64.1758 113.241 64.4643 113.15 64.7395C112.919 65.6137 112.751 66.5033 112.647 67.4016C112.607 67.6264 112.554 67.8486 112.489 68.0671C112.239 68.7021 112.098 69.3753 112.073 70.0578C112.08 70.3075 112.036 70.556 111.944 70.7881C111.541 71.7834 111.453 72.873 111.096 73.886C110.885 74.5103 110.704 75.1464 110.511 75.7707C110.124 76.9073 109.779 78.0558 109.34 79.1513C109.077 79.7873 108.972 80.5176 108.427 81.0241C108.379 81.092 108.349 81.1711 108.34 81.2538C108.217 81.733 108.042 82.1971 107.819 82.6379C107.273 83.992 106.623 85.3014 105.876 86.5544C105.572 87.1627 105.212 87.7405 104.799 88.2801C104.603 88.5922 104.427 88.9168 104.273 89.2519C103.646 90.2939 102.954 91.2952 102.201 92.2496C101.821 92.6913 101.546 93.2391 101.136 93.6808C100.862 94.0671 100.528 94.407 100.147 94.6879C100.034 94.7437 99.9464 94.8405 99.9015 94.9588C99.6792 95.6597 99.0764 96.0778 98.661 96.6197C98.1432 97.2728 97.5543 97.8654 96.9055 98.3865C96.8367 98.4315 96.7738 98.485 96.7182 98.5456C96.4221 98.9642 96.0651 99.3355 95.659 99.6469C95.28 100.054 94.8712 100.432 94.436 100.778C93.9679 101.084 93.6227 101.526 93.1779 101.85C92.9322 102.026 92.8502 102.144 93.1428 102.344C93.1853 102.363 93.2229 102.392 93.253 102.427C93.2831 102.463 93.3048 102.505 93.3166 102.55C93.3284 102.595 93.33 102.643 93.3212 102.689C93.3123 102.735 93.2934 102.778 93.2657 102.815C93.24 102.872 93.1988 102.92 93.1469 102.953C93.0951 102.987 93.0348 103.004 92.9731 103.004C92.9115 103.004 92.8512 102.987 92.7993 102.953C92.7474 102.92 92.7062 102.872 92.6805 102.815C92.5108 102.486 92.3353 102.586 92.1597 102.762C91.3991 103.386 90.5822 103.936 89.7196 104.406C89.5628 104.506 89.414 104.618 89.2748 104.741C89.0324 104.991 88.7443 105.191 88.4264 105.33C87.8382 105.546 87.2887 105.856 86.7996 106.249C86.4021 106.539 85.9878 106.804 85.559 107.044C85.2494 107.244 84.9122 107.397 84.5584 107.498C84.5395 107.491 84.5188 107.491 84.4999 107.498C83.8562 108.175 82.8789 108.151 82.1592 108.64C82.0597 108.711 81.9193 108.723 81.8315 108.799C80.8672 109.548 79.7293 110.036 78.5253 110.219C77.7513 110.443 77.0052 110.755 76.3016 111.149C76.0682 111.276 75.806 111.339 75.5409 111.332C75.2993 111.286 75.0503 111.3 74.8151 111.372C74.5798 111.444 74.3651 111.571 74.1892 111.744C74.0002 111.91 73.7607 112.005 73.5104 112.015C72.5624 112.168 71.6027 112.274 70.6606 112.48C69.7185 112.686 68.9051 112.745 68.08 113.016C67.9646 113.061 67.8409 113.081 67.7172 113.075C66.7049 112.916 65.7335 113.305 64.7328 113.299C64.7328 113.299 64.6919 113.299 64.6743 113.299C63.9429 113.782 63.1119 113.587 62.3336 113.599C61.1633 113.599 59.993 113.864 58.8226 113.599C58.2506 113.564 57.6765 113.616 57.1198 113.752C56.9969 113.752 56.8623 113.841 56.7628 113.811C55.905 113.63 55.0243 113.587 54.153 113.682C53.9675 113.665 53.7836 113.633 53.6029 113.587C53.4683 113.558 53.3162 113.47 53.1874 113.505C52.68 113.607 52.1531 113.505 51.7187 113.222C51.669 113.185 51.6103 113.161 51.5486 113.154C51.487 113.147 51.4245 113.156 51.3676 113.181C51.216 113.247 51.0527 113.28 50.8877 113.28C50.7228 113.28 50.5595 113.247 50.4079 113.181C49.5945 112.993 48.7614 112.904 47.9268 112.916C47.4763 112.926 47.0274 112.86 46.5984 112.722C46.0864 112.564 45.5432 112.537 45.0185 112.645C44.6969 112.711 44.3624 112.652 44.0822 112.48C43.7311 112.268 43.2922 112.245 42.9587 111.974C42.9227 111.961 42.8834 111.961 42.8475 111.974C42.0107 112.115 41.3144 111.65 40.5595 111.438C39.8046 111.226 39.0849 111.073 38.3475 110.896C38.2481 110.896 38.1252 110.896 38.0491 110.831C37.3564 110.427 36.6066 110.131 35.8255 109.954C34.7784 109.596 33.7767 109.116 32.8411 108.522C32.7151 108.451 32.579 108.399 32.4373 108.369C31.5618 108.085 30.726 107.689 29.9504 107.191C29.2306 106.803 28.6454 106.173 27.8203 105.984C27.6806 105.94 27.5578 105.854 27.4692 105.737C27.2138 105.492 26.919 105.293 26.5973 105.148C26.13 104.896 25.6838 104.607 25.2631 104.282C24.4088 103.64 23.4725 103.104 22.6357 102.456C21.9455 101.874 21.2204 101.335 20.4648 100.842C20.0961 100.619 19.9206 100.218 19.6338 99.9237C19.3811 99.6585 19.1092 99.4124 18.8204 99.1875C18.5283 99.03 18.2898 98.7879 18.1358 98.4926C18.111 98.4363 18.0676 98.3905 18.0129 98.363C17.3634 98.0214 17.0064 97.35 16.4095 96.9495C15.7854 96.4126 15.2239 95.806 14.736 95.1414C14.063 94.4229 13.4193 93.6808 12.7581 92.9446C12.6542 92.8458 12.5672 92.7304 12.5006 92.603C12.2947 92.1966 12.0193 91.8298 11.6872 91.5193C11.1828 91.0063 10.7568 90.4208 10.4233 89.7819C10.0195 88.8808 9.25291 88.18 8.88425 87.2553C8.68649 86.7114 8.38872 86.2099 8.0065 85.777C7.93135 85.6787 7.87572 85.5667 7.84265 85.4472C7.67009 85.0049 7.43131 84.5918 7.1346 84.2222C6.90393 83.9815 6.74743 83.6788 6.68402 83.3505C6.60857 83.0085 6.47174 82.6831 6.28025 82.3905C5.64223 81.2881 5.11118 80.1264 4.69444 78.9216C4.26727 77.7437 3.8635 76.6011 3.5241 75.4232C3.41877 75.0934 3.30174 74.7694 3.16715 74.4573C3.06597 74.2783 3.01728 74.0741 3.02671 73.8683C3.01498 73.4995 2.95798 73.1335 2.85701 72.7788C2.72827 71.7658 2.23088 70.8706 2.10799 69.834C2.02607 69.1685 1.86807 68.503 1.81541 67.8198C1.77253 67.5535 1.78248 67.2812 1.84467 67.0188C1.89069 66.8214 1.8701 66.6142 1.78615 66.4298C1.51978 65.7775 1.3236 65.0983 1.20098 64.4038C1.02093 63.5145 0.983391 62.6018 1.0898 61.7005C1.14605 61.4779 1.13172 61.2431 1.04883 61.0291C0.947461 60.8127 0.901831 60.5742 0.916147 60.3354C0.930464 60.0966 1.00427 59.8653 1.13076 59.6627C1.17961 59.5847 1.21254 59.4976 1.22761 59.4066C1.24268 59.3156 1.23959 59.2225 1.21853 59.1327C1.17757 58.9501 1.17757 58.7616 1.13076 58.585C0.947716 57.7182 0.874961 56.8316 0.914245 55.9464C0.914245 55.3575 0.779656 54.7214 0.82647 54.0971C0.812917 53.9121 0.842993 53.7264 0.914245 53.5553C1.34142 52.8721 1.20683 52.13 1.18928 51.3938C1.18928 51.3349 1.16002 51.2701 1.18928 51.2112C1.48186 50.3867 1.34727 49.4974 1.56378 48.6493C1.72154 48.1407 1.7947 47.6094 1.7803 47.0768C1.74407 46.6405 1.83346 46.2029 2.03777 45.8164C2.15951 45.5978 2.22959 45.354 2.24258 45.1038C2.298 44.361 2.45554 43.6297 2.71072 42.9305C2.90382 42.2532 3.05011 41.5641 3.29589 40.9104C3.4667 40.2118 3.69372 39.5283 3.97468 38.8667C4.44867 38.0834 4.43111 37.147 4.94606 36.4049C5.04922 36.2034 5.11092 35.9831 5.12747 35.757C5.13199 35.5419 5.20825 35.3344 5.34398 35.1681C5.62725 34.8332 5.81171 34.4252 5.87648 33.9902C6.14793 33.0362 6.56443 32.1303 7.11119 31.3045C7.40963 30.8098 7.62614 30.268 7.89532 29.7615C8.48049 28.6543 9.18854 27.6059 9.7152 26.4574C10.0195 25.8037 10.5578 25.2795 10.827 24.6258C11.0951 23.9973 11.5205 23.4494 12.0617 23.0356C12.1414 22.9731 12.2022 22.8895 12.2373 22.7941C12.5151 22.1466 12.962 21.5869 13.5305 21.1745C13.8523 20.88 14.0806 20.5149 14.3907 20.2086C14.9759 19.6491 15.4908 19.0307 16.0058 18.4418C16.5207 17.8528 17.0298 17.4877 17.5155 16.987C18.0012 16.4864 18.6858 15.9564 19.2301 15.4086C19.9498 14.7019 20.5876 13.9068 21.325 13.2413C22.0153 12.5663 22.7927 11.9878 23.6364 11.5215C23.6951 11.5019 23.749 11.4697 23.7944 11.4273C24.4312 10.7938 25.1449 10.2437 25.9185 9.79002C26.0804 9.6579 26.2596 9.54889 26.451 9.46609C27.2157 9.13146 27.9259 8.68274 28.5577 8.13505C28.6495 8.05015 28.7542 7.98056 28.8678 7.92892C29.9152 7.56965 30.8574 6.96892 31.899 6.58021C32.4182 6.39463 32.9246 6.17426 33.4146 5.92058C34.2221 5.50835 35.0958 5.24316 35.9952 5.13727C36.2403 5.11755 36.4771 5.03877 36.6857 4.90758C37.1246 4.64105 37.58 4.40302 38.0491 4.19494C38.2996 4.05557 38.57 3.95623 38.8508 3.90046C39.1947 3.8368 39.5278 3.72374 39.8397 3.56476C40.2433 3.36135 40.6789 3.22984 41.1271 3.17605C41.4761 3.1439 41.8188 3.06261 42.1453 2.93458C43.0391 2.62572 43.96 2.40288 44.8956 2.26906C45.1198 2.2456 45.3413 2.20023 45.5568 2.1336C46.4072 1.81116 47.3051 1.634 48.2135 1.60943ZM36.1941 19.1485C36.1791 19.8721 35.926 20.5701 35.4744 21.1333C35.4115 21.2614 35.3109 21.3669 35.1863 21.4354C35.0617 21.5039 34.9191 21.5321 34.778 21.5161C34.3976 21.4749 34.1928 21.5868 34.146 21.9343C34.0251 22.3308 33.9971 22.7501 34.0641 23.1593C34.1753 23.5716 34.0641 23.6835 33.6369 23.6187C32.7646 23.5032 31.9256 23.2064 31.1734 22.747C30.6358 22.4081 30.1181 22.0385 29.6227 21.6398C28.7695 20.9904 27.9851 20.2543 27.282 19.443C26.5817 18.6219 25.6485 18.0361 24.6078 17.7645C24.2823 17.6532 23.9332 17.6317 23.5968 17.7022C23.2603 17.7726 22.9487 17.9324 22.6943 18.165C22.4426 18.3764 22.1677 18.5582 21.875 18.7068C21.7254 18.7768 21.5904 18.8747 21.4771 18.9954C20.8948 19.6636 20.3572 20.3699 19.8679 21.1097C19.803 21.2384 19.7181 21.3557 19.6163 21.4572C18.947 22.1318 18.3828 22.9042 17.9427 23.7483C17.7563 23.9868 17.5936 24.2433 17.457 24.5139C17.1061 25.4627 16.5888 26.3405 15.9297 27.1053C15.4616 27.6943 14.9525 28.2125 14.4785 28.7779C14.3028 29.0569 14.1072 29.3226 13.8933 29.573C13.1384 30.268 12.4128 31.0042 11.6755 31.7227C11.5634 31.8118 11.4648 31.917 11.3829 32.0349C10.9089 32.9772 10.277 33.8017 9.80297 34.7617C9.31237 35.7086 8.89753 36.6933 8.56241 37.7065C8.35854 38.0857 8.18252 38.4794 8.03576 38.8844C7.88263 39.4975 7.65874 40.0905 7.36867 40.6513C7.11434 41.1481 6.94988 41.6866 6.88297 42.2414C6.80915 42.9198 6.69187 43.5926 6.53187 44.2557C6.33877 45.3099 6.08714 46.3524 5.87648 47.4066C5.57219 48.9438 5.34983 50.5045 5.08065 52.0476C4.79715 53.5683 4.62116 55.1074 4.554 56.6532C4.554 57.3717 4.49548 58.0902 4.51889 58.8088C4.61251 59.731 4.61251 60.6605 4.51889 61.5827C4.50444 61.6646 4.50444 61.7483 4.51889 61.8301C4.6213 62.6505 4.66822 63.4769 4.65933 64.3037C4.64887 65.133 4.7633 65.959 4.99873 66.7538C5.27562 67.6799 5.50608 68.6195 5.68923 69.569C6.08129 70.9825 6.40899 72.4136 6.81275 73.8271C7.18141 75.1169 7.61444 76.3891 8.09428 77.6377C8.58627 79.0039 9.15479 80.341 9.79712 81.6426C10.5169 82.9854 11.143 84.3871 11.9096 85.7005C12.9512 87.4673 14.063 89.2342 15.2333 90.9009C16.1872 92.2732 17.2756 93.5336 18.3055 94.8528C18.6273 95.2545 18.9732 95.6361 19.3412 95.9954C20.0727 96.7139 20.8627 97.3853 21.5532 98.1392C22.2437 98.893 23.2268 99.641 24.0167 100.442C24.4556 100.89 25.0466 101.137 25.4738 101.585C26.2216 102.266 27.0442 102.858 27.9257 103.351C28.7742 103.893 29.7221 104.229 30.5589 104.806C31.634 105.517 32.7629 106.141 33.9354 106.673C34.4366 106.844 34.9288 107.041 35.41 107.262C35.9844 107.611 36.5971 107.892 37.2357 108.098C37.7539 108.359 38.2945 108.572 38.8508 108.734C39.7927 108.934 40.7052 109.255 41.566 109.689C42.1632 109.952 42.7872 110.15 43.4268 110.278C43.9917 110.371 44.5463 110.518 45.0828 110.719C45.5344 110.929 46.0336 111.012 46.5282 110.961C46.8966 110.916 47.2694 110.991 47.5932 111.173C48.0594 111.443 48.5885 111.583 49.1264 111.579C49.3294 111.577 49.53 111.623 49.7115 111.715C50.4998 112.017 51.3502 112.118 52.1868 112.009C53.373 111.9 54.5688 111.973 55.7329 112.227C56.5022 112.524 57.3349 112.615 58.1497 112.492C58.6471 112.368 59.1503 112.256 59.6477 112.145C60.03 112.033 60.4358 112.033 60.8181 112.145C61.6981 112.378 62.6283 112.33 63.4806 112.009C63.9699 111.853 64.4872 111.807 64.9962 111.874C65.6403 112.003 66.3023 112.015 66.9506 111.909C67.9981 111.691 69.0163 111.402 70.0403 111.108C70.7837 110.787 71.5482 110.517 72.3283 110.301C72.8845 110.166 73.4301 109.991 73.961 109.777C74.0953 109.718 74.2431 109.698 74.3881 109.718C74.8035 109.798 75.2327 109.761 75.6287 109.612C76.6595 109.304 77.6438 108.856 78.5545 108.281C78.9645 108.049 79.3932 107.852 79.8361 107.692C80.3807 107.592 80.8976 107.375 81.3517 107.056C81.7307 106.751 82.1478 106.498 82.5922 106.302C82.997 106.055 83.4151 105.831 83.8445 105.631C84.5085 105.305 85.148 104.931 85.758 104.512C86.7118 103.923 87.5135 103.057 88.6019 102.709C88.6408 102.699 88.6755 102.676 88.7014 102.645C88.953 102.215 89.4153 102.109 89.8015 101.891C90.0159 101.806 90.1968 101.653 90.3165 101.455C90.5672 100.982 90.9416 100.587 91.399 100.312C92.3975 99.5557 93.3383 98.7249 94.2137 97.827C95.1441 96.8199 96.3437 96.0602 97.1395 94.8823C97.1854 94.8144 97.2479 94.7597 97.3209 94.7233C97.6614 94.518 97.9075 94.1857 98.0056 93.7986C98.0662 93.5554 98.1917 93.3334 98.3684 93.1566C98.7999 92.7766 99.1727 92.334 99.4744 91.8433C99.9952 91.1188 100.463 90.365 101.025 89.6818C101.583 88.9959 102.084 88.2651 102.523 87.4968C103.184 86.3189 103.775 85.1409 104.501 84.0278C104.538 83.9539 104.569 83.8771 104.595 83.7981C104.776 83.2681 105.08 82.8028 105.309 82.3022C105.656 81.7239 105.937 81.1074 106.145 80.4646C106.216 80.0358 106.352 79.6205 106.549 79.2337C107.126 78.1194 107.6 76.9543 107.965 75.753C108.085 75.2073 108.282 74.6817 108.55 74.1923C108.71 73.9525 108.81 73.6779 108.843 73.3913C108.854 73.1903 108.893 72.992 108.96 72.8023C109.321 71.9212 109.546 70.9897 109.627 70.0401C109.68 69.4512 110.002 68.9093 110.078 68.3086C110.282 66.636 110.499 64.9575 110.704 63.2848C110.718 63.1202 110.718 62.9547 110.704 62.7901C110.673 62.0441 110.764 61.298 110.973 60.5815C111.12 60.0671 111.13 59.5227 111.002 59.0031C110.756 58.0549 110.909 57.0655 110.733 56.1113C110.719 56.0513 110.719 55.9888 110.733 55.9288C110.799 55.7749 110.824 55.6061 110.805 55.4395C110.785 55.273 110.722 55.1146 110.622 54.9806C110.417 54.6244 110.331 54.2116 110.376 53.8026C110.394 53.5359 110.394 53.2684 110.376 53.0017C110.369 52.1534 110.232 51.3113 109.972 50.5045C109.574 49.409 109.018 48.3784 108.919 47.1887C108.916 47.1473 108.904 47.107 108.884 47.0709C108.726 46.7123 108.663 46.3186 108.702 45.9283C108.728 44.9636 108.573 44.0027 108.246 43.0954C108.192 42.9581 108.16 42.8129 108.152 42.6655C108.083 41.716 107.857 40.7847 107.485 39.9092C107.329 39.5715 107.215 39.2153 107.146 38.8491C107.111 38.6251 107.027 38.4117 106.9 38.2248C106.473 37.665 106.212 36.9955 106.145 36.293C106.118 36.1729 106.062 36.0616 105.981 35.9691C105.66 35.4272 105.168 34.9678 105.221 34.2552C105.221 34.1256 105.08 34.0609 105.016 33.9548C104.449 33.024 103.948 32.0537 103.518 31.0513C103.426 30.8315 103.293 30.6316 103.126 30.4623C102.517 29.9012 102.07 29.1849 101.833 28.3892C101.661 27.8609 101.378 27.3766 101.002 26.9698C100.194 25.9804 99.3164 25.044 98.8775 23.8071C98.7528 23.3871 98.483 23.0257 98.1168 22.7883C97.8472 22.5968 97.6233 22.3473 97.4614 22.058C97.383 21.9148 97.2845 21.7839 97.1688 21.6692C96.7393 21.2831 96.3825 20.8223 96.1155 20.3088C95.857 19.8364 95.4822 19.4389 95.0271 19.1544C94.637 18.8931 94.2708 18.5975 93.9328 18.271C93.5795 17.8414 93.1655 17.4663 92.7039 17.1578C91.996 16.7484 91.3414 16.2518 90.7553 15.6796C90.3399 15.3262 90.0414 14.8256 89.468 14.6666C89.3528 14.6168 89.2593 14.5269 89.2046 14.4133C88.7716 13.7537 88.0343 13.4356 87.4491 12.9763C87.24 12.8395 86.9963 12.7659 86.7469 12.7642C86.5351 12.7652 86.3291 12.6947 86.1617 12.564C85.7404 12.1694 85.2079 11.922 84.81 11.5039C84.3203 11.0284 83.7467 10.6489 83.1189 10.3849C82.3055 10.0079 81.5096 9.5721 80.7138 9.14805C79.8592 8.57681 78.9242 8.13804 77.9401 7.84646C77.7799 7.81072 77.6286 7.74259 77.4954 7.64622C77.1486 7.42239 76.7696 7.25355 76.3719 7.14561C75.8277 6.9807 75.2659 6.86291 74.7334 6.65088C74.4467 6.54487 74.1482 6.44475 73.8615 6.35052C72.9077 6.0207 71.9012 5.90291 70.9356 5.53187C70.2935 5.29186 69.6225 5.13934 68.9402 5.07837C68.4491 5.03416 67.9632 4.94345 67.489 4.80745C67.0396 4.67042 66.5717 4.60485 66.1021 4.6131C65.5059 4.61138 64.9136 4.516 64.3466 4.3304C64.2088 4.29666 64.0672 4.28082 63.9253 4.28328C62.755 4.28328 61.6314 4.23028 60.4904 4.24206C59.753 4.24206 59.0157 4.20083 58.2726 4.19494C57.1666 4.19494 56.0665 4.25384 54.9605 4.34218C54.3528 4.32827 53.7508 4.46158 53.205 4.73089C52.5458 5.09173 51.8352 5.348 51.0984 5.49064C49.7759 5.76745 48.1725 7.16916 48.1725 8.87713C48.1613 9.0014 48.1358 9.12394 48.0965 9.24229C47.9731 9.97445 47.805 10.6983 47.5932 11.4096C47.5286 11.7436 47.3898 12.0586 47.1871 12.3309C46.9844 12.6032 46.7232 12.8259 46.4229 12.9822C46.1303 13.1117 46.1362 13.2707 46.4229 13.4533C46.5439 13.5323 46.6828 13.5789 46.8266 13.5888C47.1134 13.5888 47.1836 13.7831 47.2129 14.0482C47.2771 14.4052 47.2379 14.7733 47.0998 15.1086C46.9618 15.4438 46.7309 15.732 46.4346 15.9387C46.3486 16.0273 46.2457 16.0975 46.1321 16.1451C46.0184 16.1927 45.8964 16.2166 45.7733 16.2155C45.5894 16.1939 45.4035 16.2334 45.2439 16.328C45.0844 16.4227 44.96 16.5672 44.8897 16.7397C44.6884 17.0308 44.4244 17.2724 44.1173 17.4464C43.8657 17.6231 43.6667 17.6408 43.5321 17.3051C43.3976 16.9694 43.2688 17.0224 43.0933 17.2521C43.0406 17.3228 42.9879 17.3816 42.8826 17.3286C42.7188 17.152 42.8007 16.8928 42.6719 16.6926C42.6306 16.6095 42.5658 16.5405 42.4856 16.4944C42.4054 16.4483 42.3135 16.4271 42.2214 16.4334C41.9814 16.4334 42.0224 16.6513 42.0458 16.8104C42.0692 16.9694 41.9932 17.0577 41.841 17.0577C41.6889 17.0577 41.4724 17.1991 41.3144 17.1873C40.893 17.1873 40.4366 17.4288 40.0387 17.0224C39.6408 16.616 39.4535 16.6455 39.0673 17.0224C38.9714 17.1501 38.8982 17.2936 38.8508 17.4464C38.6752 17.7821 38.447 17.8234 38.1544 17.5819C38.017 17.4572 37.888 17.3234 37.7682 17.1814C37.5342 16.9458 37.3645 16.9576 37.2825 17.2521C37.1465 17.6108 37.0829 17.9932 37.0953 18.377C37.1831 19.3134 37.1831 19.3134 36.1941 19.1485Z" fill="#B50527" fill-opacity="0.81"/>
</svg>
