<svg width="203" height="53" viewBox="0 0 203 53" fill="none" xmlns="http://www.w3.org/2000/svg">
    <path d="M50.8048 21.1491V0.496948H59.693C61.8171 0.496948 63.6899 0.924674 65.3113 1.78013C66.9327 2.63558 68.1998 3.83528 69.1126 5.37924C70.0248 6.92319 70.4812 8.73763 70.4818 10.8226C70.4824 12.9075 70.026 14.7219 69.1126 16.2659C68.1992 17.8111 66.9321 19.0112 65.3113 19.866C63.6905 20.7208 61.8177 21.1485 59.693 21.1491H50.8048ZM55.3611 17.255H59.4695C60.774 17.255 61.906 16.9942 62.8653 16.4726C63.8037 15.9737 64.5819 15.1938 65.1026 14.2305C65.6328 13.2598 65.8983 12.1239 65.8989 10.8226C65.8989 9.50573 65.6334 8.36491 65.1026 7.4001C64.5783 6.4436 63.8007 5.66967 62.8653 5.17346C61.9047 4.65256 60.7728 4.39178 59.4695 4.39113H55.3611V17.255Z"
          fill="#1D1D1D"/>
    <path d="M73.8923 21.1491V0.496948H78.4476V21.1491H73.8923Z" fill="#1D1D1D"/>
    <path d="M92.5624 21.5034C91.1024 21.5197 89.6522 21.2495 88.2857 20.7066C87.0198 20.2023 85.8601 19.4405 84.8724 18.4644C83.9083 17.508 83.1422 16.3513 82.6223 15.0672C82.0825 13.724 81.8114 12.2776 81.826 10.8187C81.826 9.26569 82.0914 7.84468 82.6223 6.55568C83.1462 5.28065 83.9119 4.13241 84.8724 3.18176C85.8571 2.20716 87.0129 1.44516 88.2746 0.93862C89.5699 0.408007 90.9906 0.1427 92.5366 0.1427C94.0827 0.1427 95.5036 0.401536 96.7996 0.919207C98.0601 1.4192 99.2143 2.17798 100.195 3.15167C101.16 4.108 101.926 5.26468 102.445 6.54888C102.987 7.90184 103.258 9.358 103.242 10.8265C103.255 12.2903 102.984 13.7414 102.445 15.0905C101.928 16.3789 101.161 17.5395 100.195 18.4984C99.2143 19.472 98.0601 20.2308 96.7996 20.7308C95.4439 21.2599 94.0077 21.5218 92.5624 21.5034ZM92.5339 17.4617C93.3626 17.4716 94.1848 17.3066 94.9522 16.9764C95.6814 16.6572 96.342 16.1857 96.8943 15.5903C97.4544 14.9881 97.8963 14.2749 98.1945 13.4918C98.5108 12.6418 98.667 11.7348 98.6543 10.8216C98.6669 9.90877 98.5107 9.00209 98.1945 8.15237C97.8957 7.37047 97.4539 6.65837 96.8943 6.05677C96.342 5.46141 95.6814 4.98996 94.9522 4.67071C94.1849 4.34002 93.3626 4.175 92.5339 4.18539C91.701 4.17587 90.8747 4.34083 90.1026 4.67071C89.3708 4.98514 88.709 5.4572 88.1597 6.05677C87.6072 6.66171 87.1702 7.37317 86.8723 8.15237C86.5557 9.00196 86.3995 9.90873 86.4126 10.8216C86.3994 11.7348 86.5556 12.6419 86.8723 13.4918C87.17 14.2712 87.607 14.9827 88.1597 15.5874C88.709 16.187 89.3708 16.6591 90.1026 16.9735C90.8746 17.3039 91.7009 17.4698 92.5339 17.4617Z"
          fill="#1D1D1D"/>
    <path d="M106.65 21.1491V0.496948H110.395L121.939 15.3661H120.122V0.496948H124.596V21.1491H120.851L109.305 6.27902H111.122V21.1491H106.65Z"
          fill="#1D1D1D"/>
    <path d="M134.097 21.1491V12.7153L135.131 15.6068L126.494 0.496948H131.33L137.929 12.0621H135.162L141.784 0.496948H146.198L137.617 15.6029L138.653 12.7153V21.153L134.097 21.1491Z"
          fill="#1D1D1D"/>
    <path d="M154.165 21.5034C152.639 21.5091 151.119 21.2856 149.652 20.8395C148.208 20.3969 147.048 19.8216 146.172 19.1137L147.709 15.5146C148.529 16.1436 149.516 16.6596 150.671 17.0628C151.798 17.4612 152.978 17.6654 154.165 17.6675C155.061 17.6675 155.782 17.5704 156.331 17.3763C156.88 17.1822 157.285 16.9214 157.548 16.594C157.805 16.2788 157.945 15.8747 157.939 15.4583C157.947 15.203 157.894 14.9496 157.787 14.7206C157.68 14.4916 157.521 14.2939 157.324 14.145C156.914 13.8215 156.369 13.5559 155.689 13.3482C155.009 13.1404 154.269 12.9428 153.469 12.7551C152.668 12.5687 151.862 12.3423 151.051 12.0757C150.266 11.8228 149.515 11.466 148.816 11.0138C148.147 10.5841 147.59 9.98613 147.195 9.27344C146.794 8.55517 146.593 7.65507 146.593 6.57313C146.584 5.42694 146.895 4.30336 147.488 3.34286C148.085 2.37223 148.993 1.59572 150.213 1.01334C151.433 0.430961 152.966 0.139771 154.811 0.139771C156.04 0.139749 157.265 0.298164 158.458 0.611499C159.567 0.886423 160.629 1.34506 161.603 1.97039L160.175 5.57144C159.324 5.05122 158.413 4.6496 157.464 4.37659C156.59 4.1199 155.688 3.98642 154.781 3.9796C153.886 3.9796 153.168 4.08281 152.628 4.28923C152.088 4.49565 151.692 4.77617 151.44 5.13077C151.194 5.46881 151.061 5.88371 151.063 6.31009C151.056 6.56729 151.109 6.82237 151.216 7.05358C151.323 7.28478 151.481 7.48526 151.677 7.63792C152.087 7.97246 152.628 8.23324 153.299 8.42025C153.971 8.60726 154.716 8.79427 155.535 8.98128C156.356 9.16807 157.168 9.39939 157.967 9.67431C158.737 9.93521 159.477 10.2865 160.174 10.7216C160.843 11.1423 161.404 11.7299 161.809 12.4328C162.228 13.1511 162.438 14.0412 162.438 15.1031C162.445 16.2374 162.129 17.3478 161.53 18.2897C160.924 19.2538 160.004 20.0303 158.771 20.6192C157.539 21.208 156.003 21.5028 154.165 21.5034Z"
          fill="#1D1D1D"/>
    <path d="M174.234 21.5034C171.458 21.5034 169.287 20.6871 167.721 19.0545C166.155 17.4219 165.372 15.0823 165.373 12.0359V0.496948H169.929V11.9145C169.929 13.8616 170.311 15.2729 171.075 16.1484C171.838 17.0239 172.9 17.4617 174.261 17.4617C175.64 17.4617 176.713 17.0239 177.479 16.1484C178.245 15.2729 178.628 13.8616 178.626 11.9145V0.496948H183.07V12.0359C183.07 15.0843 182.287 17.4248 180.721 19.0574C179.156 20.69 176.993 21.5054 174.234 21.5034Z"
          fill="#1D1D1D"/>
    <path d="M194.021 21.5035C192.493 21.5091 190.973 21.2855 189.506 20.8395C188.062 20.3969 186.902 19.8217 186.027 19.1138L187.564 15.5146C188.383 16.1436 189.37 16.6597 190.526 17.0628C191.653 17.4612 192.833 17.6654 194.021 17.6675C194.914 17.6675 195.636 17.5704 196.186 17.3763C196.736 17.1822 197.141 16.9214 197.403 16.594C197.66 16.2788 197.8 15.8748 197.794 15.4583C197.802 15.2028 197.75 14.9493 197.642 14.7202C197.535 14.4911 197.375 14.2935 197.178 14.1451C196.769 13.8215 196.224 13.5559 195.543 13.3482C194.862 13.1405 194.122 12.9438 193.322 12.758C192.52 12.5717 191.714 12.3452 190.903 12.0786C190.119 11.8257 189.368 11.4689 188.668 11.0167C188 10.587 187.443 9.98907 187.047 9.27637C186.646 8.5581 186.445 7.658 186.445 6.57607C186.436 5.42983 186.747 4.30614 187.34 3.3458C187.936 2.37516 188.845 1.59865 190.066 1.01627C191.287 0.433891 192.819 0.1427 194.663 0.1427C195.893 0.14262 197.117 0.301036 198.31 0.614429C199.42 0.888994 200.481 1.34766 201.455 1.97332L200.03 5.5734C199.179 5.0534 198.268 4.65179 197.319 4.37855C196.446 4.12146 195.545 3.98733 194.638 3.97962C193.744 3.97962 193.027 4.08283 192.486 4.28925C191.945 4.49567 191.549 4.77619 191.298 5.13079C191.052 5.46884 190.919 5.88373 190.921 6.31011C190.915 6.56725 190.968 6.8221 191.075 7.05296C191.183 7.28382 191.341 7.48385 191.538 7.636C191.948 7.97055 192.488 8.23132 193.159 8.41833C193.83 8.60534 194.575 8.79235 195.395 8.97936C196.217 9.16616 197.028 9.39748 197.827 9.67239C198.598 9.93348 199.338 10.2848 200.034 10.7197C200.703 11.1407 201.265 11.7282 201.669 12.4309C202.088 13.1492 202.298 14.0393 202.298 15.1012C202.306 16.2356 201.989 17.3462 201.39 18.2877C200.785 19.2519 199.867 20.0284 198.637 20.6173C197.406 21.2061 195.868 21.5015 194.021 21.5035Z"
          fill="#1D1D1D"/>
    <path d="M51.419 52.454V31.8009H59.0511C60.7675 31.8009 62.2302 32.0862 63.4391 32.657C64.648 33.2277 65.5794 34.0544 66.2335 35.1369C66.8852 36.2189 67.2113 37.5072 67.2119 39.002C67.2125 40.4968 66.8864 41.7796 66.2335 42.8506C65.5807 43.9202 64.6489 44.7462 63.4382 45.3286C62.2275 45.911 60.7648 46.2022 59.0502 46.2022H52.9574L54.2153 44.8151V52.4569L51.419 52.454ZM54.2153 45.1073L52.9574 43.6329H58.9665C60.7553 43.6329 62.111 43.2294 63.0336 42.4225C63.9562 41.6156 64.4159 40.4748 64.4129 39.0001C64.4129 37.5247 63.9531 36.3839 63.0336 35.5776C62.114 34.7713 60.7584 34.3682 58.9665 34.3682H52.9574L54.2153 32.8928V45.1073Z"
          fill="#910420"/>
    <path d="M80.4322 52.6899C79.0133 52.7041 77.6049 52.434 76.2814 51.894C75.0482 51.392 73.9227 50.6346 72.9711 49.6664C72.0401 48.7146 71.2985 47.5761 70.79 46.3177C69.7466 43.6331 69.7466 40.6228 70.79 37.9382C71.2985 36.6798 72.0401 35.5413 72.9711 34.5895C73.9193 33.6234 75.0402 32.8661 76.2685 32.3619C78.9442 31.3044 81.8911 31.2993 84.57 32.3474C85.7991 32.8434 86.9208 33.5957 87.8684 34.5594C88.7996 35.5135 89.5365 36.6583 90.0339 37.9236C90.5546 39.2556 90.8161 40.6846 90.8026 42.1255C90.8026 43.6604 90.546 45.0669 90.0329 46.3449C89.5336 47.6054 88.7969 48.7456 87.8675 49.6965C86.9202 50.6608 85.7984 51.4135 84.5691 51.9095C83.2485 52.4404 81.8452 52.7051 80.4322 52.6899ZM80.4036 50.0643C81.4418 50.077 82.4724 49.8766 83.4381 49.4742C84.3381 49.0966 85.1559 48.5295 85.8417 47.8076C86.5244 47.0849 87.0656 46.2274 87.4344 45.284C87.8229 44.282 88.0174 43.2081 88.0063 42.1255C88.0203 41.0768 87.8361 40.0356 87.4642 39.0629C87.0924 38.0902 86.5405 37.2057 85.8408 36.4609C85.1579 35.7317 84.3396 35.1594 83.4372 34.7798C81.4939 33.9916 79.3428 33.9916 77.3995 34.7798C76.4942 35.1615 75.6717 35.7335 74.9821 36.4609C74.2957 37.1835 73.7497 38.0408 73.3748 38.9846C72.985 39.98 72.7901 41.0485 72.8019 42.1255C72.7917 43.2088 72.9878 44.2832 73.3784 45.2849C73.7496 46.232 74.297 47.0908 74.9884 47.8104C75.6797 48.53 76.5009 49.0958 77.4032 49.4742C78.3578 49.874 79.3768 50.0744 80.4036 50.0643Z"
          fill="#910420"/>
    <path d="M103.907 52.6899C102.488 52.7041 101.079 52.434 99.756 51.894C98.5229 51.3918 97.3974 50.6344 96.4457 49.6664C95.5149 48.7146 94.7737 47.5761 94.2655 46.3177C93.2208 43.6334 93.2208 40.6226 94.2655 37.9382C94.7737 36.6799 95.5149 35.5414 96.4457 34.5895C97.3942 33.6233 98.5154 32.866 99.744 32.3619C102.419 31.3044 105.366 31.2993 108.045 32.3474C109.274 32.8431 110.396 33.5955 111.343 34.5594C112.274 35.5135 113.012 36.6583 113.509 37.9237C114.534 40.6272 114.534 43.6433 113.509 46.3468C113.01 47.6064 112.274 48.746 111.346 49.6965C110.399 50.661 109.277 51.4138 108.047 51.9095C106.726 52.4411 105.321 52.7058 103.907 52.6899ZM103.879 50.0644C104.917 50.0771 105.948 49.8766 106.914 49.4742C107.814 49.0968 108.632 48.5298 109.317 47.8076C110 47.0847 110.541 46.2273 110.911 45.284C111.3 44.2824 111.494 43.2088 111.484 42.1265C111.498 41.0776 111.313 40.0363 110.941 39.0636C110.569 38.0909 110.017 37.2064 109.317 36.4619C108.634 35.7325 107.816 35.1601 106.914 34.7807C105.948 34.378 104.917 34.1772 103.879 34.1896C102.851 34.1792 101.831 34.38 100.875 34.7807C99.9693 35.1622 99.1465 35.7342 98.4567 36.4619C97.7705 37.1846 97.2248 38.0419 96.8503 38.9855C96.4603 39.9813 96.2655 41.0501 96.2774 42.1275C96.2663 43.2098 96.4611 44.2835 96.8503 45.285C97.221 46.2322 97.7684 47.0912 98.4598 47.8109C99.1511 48.5305 99.9725 49.0962 100.875 49.4742C101.832 49.8751 102.853 50.0756 103.883 50.0644H103.879Z"
          fill="#910420"/>
    <path d="M118.557 52.454V31.8009H121.353V49.8906H131.945V52.4569L118.557 52.454Z" fill="#910420"/>
    <path d="M17.5971 37.1161L14.1213 40.8637L12.5728 39.2291L9.94391 36.4541V25.4714C11.5164 26.2605 13.193 26.7939 14.9167 27.0535V34.2867L17.5971 37.1161Z"
          fill="#910420"/>
    <path d="M24.8603 44.7831V52.4841H19.8884V46.9486L18.7206 45.7159L21.2061 43.0913L22.2323 42.0091L24.8603 44.7831Z"
          fill="#910420"/>
    <path d="M28.1045 22.4741L17.8057 25.0453L8.19483 22.8934L2.56915 10.6731H31.9049L28.1045 22.4741Z" fill="#910420"/>
    <path d="M34.8042 0V9.84029C34.8071 13.3172 33.874 16.7234 32.1135 19.662C30.353 22.6006 27.8376 24.9506 24.8604 26.4381V36.4512L20.9138 40.6171L19.8885 41.6994L17.4058 44.325L14.923 46.9457V52.4783H9.94379V44.7831L19.8885 34.2867V28.0241C18.2396 28.2726 16.5655 28.2726 14.9166 28.0241C13.1929 27.7645 11.5163 27.2311 9.94379 26.442C6.96605 24.9542 4.45027 22.6036 2.68971 19.6643C0.929152 16.7249 -0.00366042 13.3179 1.07948e-05 9.84029V0H4.9719V9.84029C4.9719 13.3202 6.28151 16.6576 8.61262 19.1183C10.9437 21.5789 14.1054 22.9613 17.4021 22.9613C20.6988 22.9613 23.8604 21.5789 26.1916 19.1183C28.5227 16.6576 29.8323 13.3202 29.8323 9.84029V0H34.8042Z"
          fill="#1D1D1D"/>
</svg>
