<svg width="232" height="58" viewBox="0 0 232 58" fill="none" xmlns="http://www.w3.org/2000/svg">
    <path d="M58.2642 23.0475V0.541504H68.4573C70.8933 0.541504 73.041 1.00762 74.9005 1.93986C76.76 2.8721 78.2132 4.17949 79.26 5.86203C80.3061 7.54458 80.8295 9.52188 80.8302 11.7939C80.8309 14.066 80.3075 16.0433 79.26 17.7259C78.2125 19.4098 76.7593 20.7176 74.9005 21.6491C73.0417 22.5806 70.894 23.0467 68.4573 23.0475H58.2642ZM63.4894 18.8037H68.2011C69.6971 18.8037 70.9952 18.5195 72.0955 17.9512C73.1716 17.4075 74.0641 16.5576 74.6611 15.5077C75.2693 14.45 75.5737 13.2121 75.5744 11.7939C75.5744 10.3589 75.27 9.1157 74.6611 8.06429C74.0599 7.02194 73.1682 6.17854 72.0955 5.63779C70.9938 5.07012 69.6957 4.78594 68.2011 4.78523H63.4894V18.8037Z" fill="white"/>
    <path d="M84.7415 23.0475V0.541504H89.9656V23.0475H84.7415Z" fill="white"/>
    <path d="M106.153 23.4339C104.478 23.4516 102.815 23.1571 101.248 22.5655C99.7963 22.0159 98.4664 21.1857 97.3336 20.122C96.2281 19.0798 95.3495 17.8193 94.7532 16.4199C94.1341 14.9562 93.8232 13.3799 93.84 11.7901C93.84 10.0976 94.1444 8.54908 94.7532 7.14438C95.354 5.7549 96.2322 4.50359 97.3336 3.46761C98.463 2.40553 99.7884 1.57513 101.235 1.02312C102.721 0.444883 104.35 0.155762 106.123 0.155762C107.896 0.155762 109.526 0.437831 111.012 1.00197C112.458 1.54685 113.781 2.37373 114.906 3.43482C116.012 4.477 116.891 5.7375 117.487 7.13697C118.107 8.61137 118.418 10.1982 118.4 11.7985C118.415 13.3937 118.104 14.9751 117.487 16.4453C116.893 17.8493 116.014 19.1141 114.906 20.1591C113.781 21.2201 112.458 22.047 111.012 22.5919C109.457 23.1684 107.81 23.4538 106.153 23.4339ZM106.12 19.0294C107.07 19.0401 108.013 18.8603 108.893 18.5005C109.73 18.1526 110.487 17.6388 111.121 16.99C111.763 16.3337 112.27 15.5565 112.612 14.7031C112.975 13.7768 113.154 12.7884 113.139 11.7932C113.154 10.7984 112.974 9.81038 112.612 8.88439C112.269 8.0323 111.762 7.25629 111.121 6.60069C110.487 5.95189 109.73 5.43812 108.893 5.09021C108.013 4.72984 107.07 4.55001 106.12 4.56133C105.165 4.55096 104.217 4.73072 103.332 5.09021C102.492 5.43286 101.734 5.9473 101.104 6.60069C100.47 7.25992 99.9688 8.03524 99.6273 8.88439C99.2641 9.81024 99.085 10.7984 99.1 11.7932C99.0848 12.7884 99.264 13.7769 99.6273 14.7031C99.9686 15.5524 100.47 16.3278 101.104 16.9868C101.734 17.6402 102.492 18.1547 103.332 18.4973C104.217 18.8574 105.165 19.0382 106.12 19.0294Z" fill="white"/>
    <path d="M122.308 23.0475V0.541504H126.603L139.842 16.7453H137.758V0.541504H142.89V23.0475H138.594L125.354 6.84258H127.437V23.0475H122.308Z" fill="white"/>
    <path d="M153.785 23.0475V13.8566L154.971 17.0076L145.066 0.541504H150.612L158.18 13.1447H155.006L162.601 0.541504H167.663L157.822 17.0034L159.01 13.8566V23.0517L153.785 23.0475Z" fill="white"/>
    <path d="M176.8 23.4336C175.049 23.4398 173.306 23.1962 171.624 22.7101C169.968 22.2278 168.638 21.6009 167.633 20.8294L169.396 16.9073C170.336 17.5927 171.468 18.1551 172.793 18.5944C174.085 19.0286 175.438 19.2511 176.8 19.2534C177.827 19.2534 178.654 19.1476 179.284 18.936C179.913 18.7245 180.378 18.4403 180.679 18.0835C180.975 17.74 181.134 17.2997 181.128 16.8459C181.136 16.5676 181.076 16.2915 180.953 16.042C180.83 15.7924 180.648 15.577 180.423 15.4148C179.952 15.0622 179.327 14.7727 178.548 14.5463C177.768 14.32 176.919 14.1045 176.002 13.9C175.083 13.697 174.159 13.4501 173.229 13.1596C172.329 12.884 171.467 12.4952 170.665 12.0024C169.898 11.5342 169.26 10.8825 168.806 10.1059C168.346 9.32312 168.116 8.34222 168.116 7.16317C168.106 5.9141 168.463 4.68966 169.142 3.64295C169.827 2.58519 170.869 1.73898 172.268 1.10433C173.667 0.469672 175.424 0.152344 177.54 0.152344C178.95 0.15232 180.355 0.324954 181.723 0.666415C182.995 0.966017 184.213 1.46582 185.329 2.14728L183.692 6.07157C182.716 5.50466 181.671 5.06698 180.583 4.76946C179.581 4.48974 178.546 4.34427 177.506 4.33684C176.479 4.33684 175.656 4.44932 175.037 4.67427C174.418 4.89922 173.964 5.20491 173.675 5.59134C173.392 5.95973 173.24 6.41187 173.242 6.87652C173.235 7.15681 173.295 7.43479 173.417 7.68675C173.54 7.9387 173.722 8.15718 173.947 8.32354C174.417 8.68811 175.037 8.97229 175.807 9.17609C176.577 9.37988 177.431 9.58368 178.37 9.78747C179.312 9.99104 180.243 10.2431 181.16 10.5427C182.043 10.827 182.892 11.2099 183.691 11.684C184.458 12.1425 185.102 12.7828 185.566 13.5489C186.046 14.3316 186.287 15.3016 186.287 16.4588C186.295 17.6949 185.933 18.905 185.246 19.9314C184.551 20.9821 183.496 21.8283 182.082 22.47C180.669 23.1117 178.908 23.4329 176.8 23.4336Z" fill="white"/>
    <path d="M199.815 23.4335C196.632 23.4335 194.142 22.544 192.346 20.7648C190.55 18.9857 189.653 16.4361 189.654 13.1161V0.541504H194.878V12.9839C194.878 15.1058 195.316 16.6438 196.192 17.5979C197.068 18.552 198.286 19.029 199.846 19.029C201.428 19.029 202.658 18.552 203.537 17.5979C204.416 16.6438 204.854 15.1058 204.852 12.9839V0.541504H209.948V13.1161C209.948 16.4382 209.051 18.9888 207.255 20.768C205.46 22.5471 202.98 23.4357 199.815 23.4335Z" fill="white"/>
    <path d="M222.507 23.4339C220.756 23.44 219.012 23.1964 217.329 22.7104C215.674 22.228 214.344 21.6011 213.34 20.8297L215.102 16.9075C216.041 17.5929 217.174 18.1553 218.5 18.5946C219.791 19.0288 221.145 19.2513 222.507 19.2536C223.532 19.2536 224.36 19.1478 224.99 18.9363C225.621 18.7247 226.086 18.4405 226.386 18.0837C226.681 17.7403 226.841 17.2999 226.835 16.8461C226.843 16.5677 226.784 16.2914 226.66 16.0417C226.537 15.7921 226.354 15.5768 226.128 15.415C225.659 15.0624 225.034 14.7729 224.253 14.5466C223.472 14.3202 222.623 14.1058 221.705 13.9035C220.786 13.7004 219.861 13.4536 218.932 13.163C218.032 12.8875 217.171 12.4986 216.368 12.0058C215.602 11.5376 214.963 10.8859 214.509 10.1093C214.05 9.32654 213.82 8.34564 213.82 7.16659C213.809 5.91747 214.166 4.69292 214.846 3.64637C215.529 2.58861 216.571 1.7424 217.971 1.10775C219.372 0.47309 221.129 0.155762 223.244 0.155762C224.654 0.155675 226.058 0.32831 227.426 0.669833C228.699 0.969043 229.916 1.46888 231.033 2.1507L229.398 6.07393C228.422 5.50725 227.377 5.06958 226.29 4.77182C225.288 4.49166 224.255 4.34548 223.216 4.33708C222.19 4.33708 221.367 4.44956 220.747 4.67451C220.127 4.89946 219.673 5.20515 219.384 5.59159C219.102 5.95997 218.95 6.41211 218.952 6.87677C218.945 7.15698 219.006 7.43471 219.129 7.68629C219.252 7.93787 219.434 8.15586 219.66 8.32166C220.13 8.68624 220.75 8.97042 221.519 9.17422C222.288 9.37801 223.143 9.58181 224.083 9.7856C225.025 9.98917 225.956 10.2413 226.873 10.5408C227.756 10.8254 228.605 11.2082 229.404 11.6822C230.171 12.1409 230.815 12.7812 231.279 13.547C231.759 14.3297 232 15.2997 232 16.4569C232.009 17.6932 231.646 18.9034 230.958 19.9295C230.264 20.9802 229.212 21.8264 227.801 22.4681C226.39 23.1098 224.625 23.4318 222.507 23.4339Z" fill="white"/>
    <path d="M58.9686 57.1623V34.6553H67.7212C69.6897 34.6553 71.3671 34.9663 72.7535 35.5882C74.1398 36.2102 75.2081 37.111 75.9582 38.2908C76.7055 39.4698 77.0795 40.8738 77.0802 42.5028C77.0809 44.1317 76.7069 45.5297 75.9582 46.6968C75.2095 47.8625 74.1409 48.7626 72.7524 49.3973C71.3639 50.0319 69.6865 50.3493 67.7202 50.3493H60.7328L62.1754 48.8377V57.1655L58.9686 57.1623ZM62.1754 49.1561L60.7328 47.5494H67.6242C69.6756 47.5494 71.2304 47.1097 72.2884 46.2303C73.3465 45.351 73.8737 44.1078 73.8702 42.5007C73.8702 40.8929 73.343 39.6497 72.2884 38.771C71.2339 37.8924 69.6792 37.453 67.6242 37.453H60.7328L62.1754 35.8453V49.1561Z" fill="white"/>
    <path d="M92.2413 57.4195C90.6141 57.4349 88.9989 57.1406 87.4811 56.5521C86.0669 56.0051 84.7761 55.1797 83.6848 54.1246C82.6171 53.0874 81.7666 51.8467 81.1834 50.4753C79.9869 47.5497 79.9869 44.2692 81.1834 41.3437C81.7666 39.9723 82.6171 38.7316 83.6848 37.6944C84.7722 36.6415 86.0577 35.8163 87.4663 35.2668C90.5348 34.1145 93.9144 34.1088 96.9867 35.251C98.3962 35.7915 99.6827 36.6114 100.769 37.6616C101.837 38.7014 102.682 39.9489 103.253 41.3278C103.85 42.7793 104.15 44.3366 104.134 45.9068C104.134 47.5795 103.84 49.1122 103.252 50.5049C102.679 51.8786 101.834 53.1212 100.768 54.1574C99.6819 55.2083 98.3954 56.0285 96.9856 56.5691C95.4711 57.1476 93.8618 57.4361 92.2413 57.4195ZM92.2086 54.5583C93.3992 54.5721 94.5811 54.3536 95.6886 53.9151C96.7207 53.5036 97.6586 52.8857 98.4451 52.099C99.228 51.3114 99.8486 50.3769 100.272 49.3488C100.717 48.2569 100.94 47.0866 100.927 45.9068C100.944 44.7639 100.732 43.6293 100.306 42.5693C99.8794 41.5094 99.2465 40.5454 98.4441 39.7338C97.6608 38.9391 96.7224 38.3154 95.6875 37.9017C93.4589 37.0428 90.992 37.0428 88.7634 37.9017C87.7251 38.3178 86.7819 38.941 85.991 39.7338C85.2038 40.5213 84.5777 41.4555 84.1477 42.4839C83.7007 43.5687 83.4772 44.7331 83.4907 45.9068C83.479 47.0874 83.7039 48.2582 84.1519 49.3499C84.5776 50.3819 85.2054 51.3178 85.9983 52.102C86.7911 52.8862 87.7328 53.5027 88.7676 53.9151C89.8623 54.3508 91.0309 54.5693 92.2086 54.5583Z" fill="white"/>
    <path d="M119.163 57.4195C117.535 57.435 115.92 57.1406 114.402 56.5522C112.988 56.0049 111.697 55.1795 110.606 54.1246C109.539 53.0873 108.689 51.8466 108.106 50.4753C106.908 47.55 106.908 44.269 108.106 41.3437C108.689 39.9724 109.539 38.7317 110.606 37.6944C111.694 36.6414 112.98 35.8162 114.389 35.2669C117.457 34.1144 120.836 34.1088 123.908 35.251C125.318 35.7913 126.604 36.6112 127.691 37.6616C128.759 38.7013 129.604 39.9489 130.175 41.3278C131.35 44.274 131.35 47.5609 130.175 50.5071C129.603 51.8797 128.759 53.1216 127.694 54.1574C126.608 55.2085 125.321 56.0288 123.911 56.5691C122.395 57.1483 120.784 57.4368 119.163 57.4195ZM119.131 54.5583C120.321 54.5721 121.503 54.3537 122.611 53.9152C123.643 53.5039 124.581 52.8859 125.367 52.099C126.15 51.3112 126.771 50.3768 127.195 49.3488C127.641 48.2573 127.864 47.0874 127.852 45.9079C127.868 44.7649 127.657 43.6301 127.23 42.5701C126.804 41.5101 126.17 40.5462 125.367 39.7348C124.584 38.94 123.646 38.3162 122.611 37.9028C121.503 37.4639 120.322 37.2451 119.131 37.2586C117.952 37.2473 116.782 37.4661 115.686 37.9028C114.647 38.3185 113.703 38.9419 112.912 39.7348C112.125 40.5224 111.5 41.4566 111.07 42.485C110.623 43.5701 110.399 44.7349 110.413 45.909C110.4 47.0885 110.624 48.2586 111.07 49.3499C111.495 50.3822 112.123 51.3183 112.916 52.1025C113.709 52.8868 114.651 53.5032 115.686 53.9152C116.783 54.352 117.955 54.5705 119.135 54.5583H119.131Z" fill="white"/>
    <path d="M135.963 57.1623V34.6553H139.17V54.3687H151.317V57.1655L135.963 57.1623Z" fill="white"/>
    <path d="M20.2703 40.5377L16.2947 44.6291L14.4187 42.7473L11.4038 39.7232V27.7578C13.2072 28.6177 15.1299 29.199 17.1067 29.482V37.3644L20.2703 40.5377Z" fill="white"/>
    <path d="M28.5105 48.8029V57.4194H22.8086V51.1627L21.4693 49.8194L24.3198 46.9592L25.4966 45.7798L28.5105 48.8029Z" fill="white"/>
    <path d="M32.2309 24.4911L19.7673 27.1154L9.39809 24.9481L2.94645 11.6309H36.5893L32.2309 24.4911Z" fill="white"/>
    <path d="M39.9142 0V10.7236C39.9176 14.5126 38.8474 18.2245 36.8284 21.4269C34.8094 24.6293 31.9247 27.1902 28.5104 28.8113V39.7231L23.9844 44.263L22.8085 45.4424L19.9613 48.3036L17.1141 51.1596V57.4162H11.4038V48.8029L22.8085 37.3643V30.5396C20.9175 30.8104 18.9977 30.8104 17.1067 30.5396C15.1299 30.2567 13.2072 29.6754 11.4038 28.8155C7.98882 27.1941 5.10367 24.6325 3.08462 21.4293C1.06557 18.2262 -0.00419785 14.5133 1.23797e-05 10.7236V0H5.70188V10.7236C5.70188 14.5158 7.20377 18.1528 9.87713 20.8343C12.5505 23.5159 16.1764 25.0224 19.9571 25.0224C23.7378 25.0224 27.3637 23.5159 30.037 20.8343C32.7104 18.1528 34.2123 14.5158 34.2123 10.7236V0H39.9142Z" fill="white"/>
</svg>
